<svg id="Layer_1" data-name="Layer 1" xmlns="http://www.w3.org/2000/svg" viewBox="0 0 120 74"><defs><style>.cls-1{fill:#50cd89;}.cls-2{fill:#fff;}</style></defs><path class="cls-1" d="M60.77,13.21H55.36a.29.29,0,0,0,0,.57h5.41a.29.29,0,0,0,0-.57Z"/><path class="cls-1" d="M57.81,1.11a24,24,0,1,0,24,24.06A24,24,0,0,0,57.81,1.11Zm-2.25,14.8c-.46,0-.5-.1-.54-.89,0-.45.29-.26.48-.3.54-.11.59.2.52.6S56.07,16,55.56,15.91Zm3.68,22.32c-.46,0-.91,0-1.37,0h0c-.44,0-.88,0-1.32,0s-.46-.06-.44-.42c0-.54,0-1.07,0-1.61a1,1,0,0,1,.63-1,2.56,2.56,0,0,1,1.94-.13,1.13,1.13,0,0,1,1,1.31c0,.49,0,1,0,1.46S59.55,38.25,59.24,38.23ZM59,26.77c0,.95-.23,1.2-1,1.17-.61,0-.84-.27-.85-.88,0-.13,0-.26,0-.39,0-.35,0-.7.39-.85a1.32,1.32,0,0,1,1.26.11C59.16,26.16,59,26.53,59,26.77Zm-.76-4.71c.57.06.75.26.75.85,0,.13,0,.26,0,.39,0,.34,0,.7-.38.86a1.32,1.32,0,0,1-1.26-.1c-.34-.23-.16-.59-.21-.84C57.18,22.25,57.45,22,58.27,22.06Zm.64-7.35c.41,0,.7,0,.64.56s0,.63-.68.63-.7,0-.7-.59S58.17,14.73,58.91,14.71Zm-1.13,1c0,.15-.08.2-.21.2H57c-.16-.06-.49.14-.57-.12a2.86,2.86,0,0,1,0-1c0-.09.11-.09.19-.09H57C57.8,14.71,57.94,14.88,57.78,15.7Zm2.45.21c-.56-.05-.18-.45-.3-.61,0-.58.2-.73.73-.59.12,0,.17.08.16.2s0,.26,0,.39C60.74,15.62,60.78,16,60.23,15.91ZM75.42,40a.72.72,0,0,1-.78.3,87.13,87.13,0,0,0-10.32-1c-.31,0-.66.07-.57-.49a.48.48,0,0,0-.5-.55c-.35,0-.4-.16-.42-.43-.21-2-.41-4-.62-6l-1.14-11c-.14-1.27-.26-2.53-.39-3.8,0-.14-.07-.32.17-.3s.4-.22.43-.48.09-.77.14-1.16c0-.12,0-.27.14-.33a.22.22,0,0,0,.14-.32c-.05-.17-.21-.16-.36-.16H54.58c-.17,0-.38-.07-.45.17s0,.29.25.33.09.19.1.3c.06.42.12.84.17,1.26,0,.23.15.38.37.37s.34.17.31.42q-.88,7.83-1.76,15.66L53,37.87c0,.24,0,.39-.36.4a.56.56,0,0,0-.55.75c.06.32,0,.38-.32.39a83.52,83.52,0,0,0-9.33,1.07,2,2,0,0,0-.34.05c-.85.38-1.38,0-1.91-.68A23.12,23.12,0,0,1,35,26.75a21.27,21.27,0,0,1,1.92-11c3.4-7.06,8.82-11.74,16.64-13.26A22.09,22.09,0,0,1,67.72,4.36c7.54,3.67,11.94,9.72,13,18A22.28,22.28,0,0,1,75.42,40Z"/><path class="cls-1" d="M45.27,24.25a.5.5,0,1,0-.05,1,.45.45,0,0,0,.51-.46A.47.47,0,0,0,45.27,24.25Z"/><path class="cls-1" d="M52.53,5.77c-.47-.56-.34-1.14.09-1.78-1,.34-1.44,1-1.37,1.68a1.68,1.68,0,0,0,1.41,1.48A1.72,1.72,0,0,0,54.6,6.09,1.65,1.65,0,0,1,52.53,5.77Zm-.63.69A1.13,1.13,0,0,1,52,4.72c0,1.16.53,1.7,1.73,1.88A1.33,1.33,0,0,1,51.9,6.46Z"/><path class="cls-1" d="M45.3,9.44a.76.76,0,0,0-.77.73.75.75,0,0,0,1.49.05A.76.76,0,0,0,45.3,9.44Zm0,1.18a.39.39,0,0,1-.43-.42.41.41,0,0,1,.46-.45.44.44,0,1,1,0,.87Z"/><path class="cls-1" d="M70.24,10a.75.75,0,0,0-.75.75.74.74,0,0,0,.73.75.76.76,0,0,0,.76-.74A.78.78,0,0,0,70.24,10Zm.43.77a.4.4,0,0,1-.44.42.4.4,0,0,1-.43-.46c0-.28.18-.4.43-.43S70.69,10.52,70.67,10.8Z"/><polygon class="cls-1" points="39.2 21.36 39 20.94 38.79 21.36 38.34 21.42 38.67 21.75 38.59 22.2 39 21.98 39.41 22.2 39.33 21.75 39.66 21.42 39.2 21.36"/><polygon class="cls-1" points="65.44 17.29 65.22 16.86 65.01 17.29 64.53 17.36 64.88 17.7 64.79 18.17 65.22 17.95 65.65 18.17 65.57 17.7 65.92 17.36 65.44 17.29"/><polygon class="cls-1" points="69.17 26.84 68.98 26.45 68.79 26.84 68.36 26.9 68.67 27.21 68.6 27.63 68.98 27.43 69.37 27.63 69.29 27.21 69.6 26.9 69.17 26.84"/><rect class="cls-1" x="47.75" y="16.74" width="0.95" height="0.95" rx="0.06" transform="translate(1.12 37.29) rotate(-42.73)"/><rect class="cls-1" x="64.26" y="7.33" width="0.95" height="0.95" rx="0.06" transform="translate(11.89 46) rotate(-42.73)"/><rect class="cls-1" x="73.99" y="21.68" width="0.95" height="0.95" rx="0.06" transform="translate(4.73 56.41) rotate(-42.73)"/><rect class="cls-1" x="57.72" y="12.09" width="0.61" height="0.38" rx="0.12"/><path class="cls-1" d="M60.52,10.26a.68.68,0,0,0-.69-.68h-.59V8.76a.54.54,0,0,0-.54-.54h0V6a.23.23,0,0,0-.2-.23V5.69a.59.59,0,0,0-.44-.59V2.64h-.19V5.1a.6.6,0,0,0-.41.59v.12a.24.24,0,0,0-.17.23V8.22h.14a.54.54,0,0,0-.54.54v.82h-.35a1,1,0,0,0-1,1v2.59h4.94Zm-1.74,2.59H57.37V11.79a.42.42,0,0,1,.43-.42h0v-.6h.51v.6h0a.42.42,0,0,1,.42.42Z"/><path class="cls-2" d="M10.48,60.46H3.27v-9.4h2.2v7.36h5Z"/><path class="cls-2" d="M11.81,51.53V49.8H14v1.73Zm0,8.93V52.62H14v7.84Z"/><path class="cls-2" d="M20,60.46h-2.9l-1.8-1.8V54.43l1.8-1.81h5.72v9.17L21,63.59H16v-2H20l.62-.62V54.66h-2.5l-.63.63v2.5l.63.63H20Z"/><path class="cls-2" d="M29.2,60.46V55.29l-.63-.63h-2l-.32.31v5.49H24v-11h2.19v3l-.59.59.36.35.78-.79h2.82l1.8,1.81v6Z"/><path class="cls-2" d="M37,60.46H34.45l-1.8-1.8V49.8h2.19v3.06h2v2h-2v2.89l.63.63H37Z"/><path class="cls-2" d="M43.45,60.46V55.29l-.62-.63h-2l-.31.31v5.49h-2.2v-11h2.2v3l-.6.59.36.35.79-.79h2.82l1.8,1.81v6Z"/><path class="cls-2" d="M46.9,58.66V54.43l1.8-1.81h4.23l1.8,1.81v4.23l-1.8,1.8H48.7Zm2.19-3.37v2.5l.63.63h2.19l.63-.63v-2.5l-.63-.63H49.72Z"/><path class="cls-2" d="M58.18,52.62v5.17l.63.63h2l.32-.31V52.62h2.19v7.84h-1.8l-.16-.79-.78.79H57.79L56,58.66v-6Z"/><path class="cls-2" d="M64.6,58.42h5l.47-.47-.47-.47H66.4l-1.8-1.8V54.43l1.8-1.81H72v2H67.42l-.47.47.47.47h3.21l1.81,1.8v1.26l-1.81,1.8h-6Z"/><path class="cls-2" d="M76.67,55.76h2.66v-.47l-.63-.63H76.51l-.63.63v2.5l.63.63h4.23v2H75.49l-1.8-1.8V54.43l1.8-1.81h4.23l1.8,1.81v3.21H76.67Z"/><path class="cls-2" d="M103.9,59.9h-5l-.81-3H89.56l-.82,3h-5l5.66-21.24h8.85ZM90.8,52.29h6l-2.41-9H93.2Z"/><path class="cls-2" d="M114.52,42.73h-1.77v13.1h1.77V59.9H106V55.83h1.77V42.73H106V38.66h8.5Z"/><path class="cls-2" d="M4.79,68.38H6.92a.15.15,0,0,1,.17.16v3.2a.37.37,0,0,1-.19.33,4.13,4.13,0,0,1-2.16.5c-2.27,0-3.4-1.22-3.4-3.64S2.49,65.3,4.79,65.3a3.83,3.83,0,0,1,1.91.43c.11,0,.15.11.13.19l-.17.43a.16.16,0,0,1-.23.09,3.5,3.5,0,0,0-1.58-.35,2.58,2.58,0,0,0-2,.69,4,4,0,0,0,0,4.3,2.48,2.48,0,0,0,1.94.69,3.12,3.12,0,0,0,1.45-.3V69.15H4.79c-.12,0-.18-.06-.18-.16v-.45C4.61,68.44,4.67,68.38,4.79,68.38Z"/><path class="cls-2" d="M8.56,70.68V67.42a.14.14,0,0,1,.16-.16h.49c.1,0,.15,0,.15.16v3.13a1.11,1.11,0,0,0,1.24,1.27,1.63,1.63,0,0,0,1.12-.39,1.4,1.4,0,0,0,.43-1.07V67.42a.14.14,0,0,1,.16-.16h.49c.1,0,.15,0,.15.16V72.3c0,.11,0,.17-.15.17h-.49c-.11,0-.16,0-.16-.15v-.67a1.79,1.79,0,0,1-1.74.92A1.75,1.75,0,0,1,9,72.06,1.93,1.93,0,0,1,8.56,70.68Z"/><path class="cls-2" d="M15.37,65.61v.81c0,.11,0,.16-.15.16h-.51c-.1,0-.15,0-.15-.16v-.81c0-.11,0-.16.15-.16h.51C15.32,65.45,15.37,65.5,15.37,65.61Zm0,1.81V72.3c0,.11,0,.17-.15.17h-.51c-.1,0-.15-.06-.15-.17V67.42c0-.11,0-.16.15-.16h.51C15.32,67.26,15.37,67.31,15.37,67.42Z"/><path class="cls-2" d="M20.88,72.32v-.73a1.82,1.82,0,0,1-1.86,1,2.17,2.17,0,0,1-1.71-.69,3.63,3.63,0,0,1,0-4.06A2.2,2.2,0,0,1,19,67.14a2.34,2.34,0,0,1,1.14.26,1.52,1.52,0,0,1,.71.73V65.56c0-.1.05-.15.16-.15h.49c.11,0,.16,0,.16.15V72.3c0,.11-.05.17-.16.17H21A.13.13,0,0,1,20.88,72.32Zm-.45-1a2.69,2.69,0,0,0,0-3,1.59,1.59,0,0,0-1.26-.51,1.53,1.53,0,0,0-1.23.48,3,3,0,0,0,0,3,1.53,1.53,0,0,0,1.23.48A1.59,1.59,0,0,0,20.43,71.34Z"/><path class="cls-2" d="M24.13,65.61v.81a.14.14,0,0,1-.16.16h-.5c-.1,0-.15,0-.15-.16v-.81c0-.11.05-.16.15-.16H24A.14.14,0,0,1,24.13,65.61Zm0,1.81V72.3c0,.11-.05.17-.16.17h-.5c-.1,0-.15-.06-.15-.17V67.42c0-.11.05-.16.15-.16H24A.14.14,0,0,1,24.13,67.42Z"/><path class="cls-2" d="M30.17,69V72.3c0,.11-.05.17-.16.17h-.49a.15.15,0,0,1-.17-.17V69.14a1.11,1.11,0,0,0-1.27-1.25,1.54,1.54,0,0,0-1.14.41,1.43,1.43,0,0,0-.42,1.08V72.3c0,.11-.05.17-.16.17h-.49c-.11,0-.16-.06-.16-.17V67.42a.14.14,0,0,1,.16-.16h.48c.11,0,.16,0,.16.15v.65a1.81,1.81,0,0,1,1.78-.92,1.82,1.82,0,0,1,1.4.5A2,2,0,0,1,30.17,69Z"/><path class="cls-2" d="M36.1,67.42v4.3a1.75,1.75,0,0,1-.63,1.45,2.54,2.54,0,0,1-1.7.52,4.29,4.29,0,0,1-1.76-.3c-.09,0-.13-.09-.1-.16l.15-.41c0-.1.1-.14.19-.1a4.14,4.14,0,0,0,1.5.26,1.82,1.82,0,0,0,1.14-.34,1.18,1.18,0,0,0,.42-1V71.1a1.45,1.45,0,0,1-.66.68,2.25,2.25,0,0,1-1,.23,2.15,2.15,0,0,1-1.59-.6,2.48,2.48,0,0,1-.6-1.82A2.57,2.57,0,0,1,32,67.75a2.09,2.09,0,0,1,1.58-.61,2.3,2.3,0,0,1,1,.24,1.49,1.49,0,0,1,.67.64v-.61a.14.14,0,0,1,.16-.15H36C36.05,67.26,36.1,67.31,36.1,67.42Zm-.8,2.1a1.81,1.81,0,0,0-.4-1.27,1.5,1.5,0,0,0-1.13-.42c-1,0-1.51.59-1.51,1.76s.5,1.75,1.51,1.75a1.41,1.41,0,0,0,1.12-.47A2,2,0,0,0,35.3,69.52Z"/><path class="cls-2" d="M44.72,67.43l-1.63,4.71a2.61,2.61,0,0,1-.61,1.14,1.55,1.55,0,0,1-1.08.33,1.9,1.9,0,0,1-.73-.11q-.15,0-.12-.15l.12-.41a.15.15,0,0,1,.17-.11,3.87,3.87,0,0,0,.51.07.82.82,0,0,0,.53-.15.51.51,0,0,0,.19-.4A1.09,1.09,0,0,0,42,72l-1.79-4.58c-.05-.12,0-.17.1-.17h.52c.08,0,.14,0,.17.16l1,2.65.56,1.55h0l.49-1.55.83-2.65a.18.18,0,0,1,.17-.15h.54C44.71,67.26,44.75,67.31,44.72,67.43Z"/><path class="cls-2" d="M47.89,72.57a2.38,2.38,0,0,1-1.82-.71,3.39,3.39,0,0,1,0-4,2.7,2.7,0,0,1,3.63,0,3.35,3.35,0,0,1,0,4A2.37,2.37,0,0,1,47.89,72.57Zm0-.72a1.55,1.55,0,0,0,1.22-.5,2.83,2.83,0,0,0,0-3,1.55,1.55,0,0,0-1.22-.5,1.52,1.52,0,0,0-1.22.5,2.83,2.83,0,0,0,0,3A1.52,1.52,0,0,0,47.89,71.85Z"/><path class="cls-2" d="M51.6,70.68V67.42a.14.14,0,0,1,.16-.16h.49c.1,0,.15,0,.15.16v3.13a1.11,1.11,0,0,0,1.24,1.27,1.61,1.61,0,0,0,1.12-.39,1.37,1.37,0,0,0,.43-1.07V67.42a.14.14,0,0,1,.16-.16h.49a.14.14,0,0,1,.16.16V72.3a.15.15,0,0,1-.16.17h-.49c-.11,0-.16,0-.16-.15v-.67a2.12,2.12,0,0,1-3.13.41A1.93,1.93,0,0,1,51.6,70.68Z"/><path class="cls-2" d="M65.15,69V72.3c0,.11-.05.17-.15.17h-.51c-.1,0-.15-.06-.15-.17V69.15A1.13,1.13,0,0,0,63,67.89a1.56,1.56,0,0,0-1.15.42,1.46,1.46,0,0,0-.42,1.08v2.93a.14.14,0,0,1-.16.15h-.5a.15.15,0,0,1-.16-.17V65.56a.14.14,0,0,1,.16-.15h.5a.14.14,0,0,1,.16.15v2.51a1.56,1.56,0,0,1,.61-.65,2.17,2.17,0,0,1,1.18-.28,1.83,1.83,0,0,1,1.4.5A1.89,1.89,0,0,1,65.15,69Z"/><path class="cls-2" d="M68.9,72.57a2.38,2.38,0,0,1-1.82-.71,3.35,3.35,0,0,1,0-4,2.7,2.7,0,0,1,3.63,0,3.35,3.35,0,0,1,0,4A2.37,2.37,0,0,1,68.9,72.57Zm0-.72a1.51,1.51,0,0,0,1.21-.5,2.78,2.78,0,0,0,0-3,1.73,1.73,0,0,0-2.43,0,2.83,2.83,0,0,0,0,3A1.52,1.52,0,0,0,68.9,71.85Z"/><path class="cls-2" d="M76.9,69.23V72.3c0,.11-.05.17-.16.17h-.49c-.11,0-.16-.06-.16-.17V69.09c0-.8-.37-1.2-1.12-1.2a1.43,1.43,0,0,0-1.06.39,1.38,1.38,0,0,0-.4,1v3c0,.11-.05.17-.16.17h-.49c-.11,0-.16-.06-.16-.17V67.42a.14.14,0,0,1,.16-.16h.49c.11,0,.16,0,.16.15v.65a1.48,1.48,0,0,1,.57-.64,1.84,1.84,0,0,1,1.08-.28,1.47,1.47,0,0,1,1.58,1,1.84,1.84,0,0,1,1.81-1,1.64,1.64,0,0,1,1.29.49A2,2,0,0,1,80.28,69V72.3c0,.11,0,.17-.15.17h-.49c-.11,0-.16-.06-.16-.17V69.1a1.36,1.36,0,0,0-.26-.9,1.09,1.09,0,0,0-.87-.31,1.49,1.49,0,0,0-1,.38A1.31,1.31,0,0,0,76.9,69.23Z"/><path class="cls-2" d="M84.25,71.89a2.74,2.74,0,0,0,1.32-.32c.1,0,.17,0,.22.09l.15.37c0,.08,0,.14-.11.18a3.46,3.46,0,0,1-1.62.38,2.64,2.64,0,0,1-1.95-.73,2.75,2.75,0,0,1-.71-2,2.92,2.92,0,0,1,.64-2A2.24,2.24,0,0,1,84,67.14a2.16,2.16,0,0,1,1.69.66,2.56,2.56,0,0,1,.6,1.76v.5c0,.11-.06.16-.18.16H82.35a1.76,1.76,0,0,0,.57,1.21A1.89,1.89,0,0,0,84.25,71.89ZM84,67.83c-1,0-1.54.57-1.6,1.72h3.1v0a1.85,1.85,0,0,0-.38-1.22A1.4,1.4,0,0,0,84,67.83Z"/></svg>