<svg id="Layer_1" data-name="Layer 1" xmlns="http://www.w3.org/2000/svg" viewBox="0 0 226 42"><defs><style>.cls-1{fill:#fff;}</style></defs><path class="cls-1" d="M24.33,11H19.78a.24.24,0,0,0,0,.48h4.55a.24.24,0,1,0,0-.48Z"/><path class="cls-1" d="M21.84.79A20.21,20.21,0,1,0,42.08,21.06,20.23,20.23,0,0,0,21.84.79ZM20,13.26c-.39,0-.43-.09-.46-.75,0-.38.24-.22.41-.25.45-.09.49.17.43.51S20.37,13.31,20,13.26ZM23,32.06c-.38,0-.76,0-1.15,0h0c-.37,0-.74,0-1.11,0s-.39-.05-.37-.35c0-.45,0-.91,0-1.36a.85.85,0,0,1,.53-.85,2.15,2.15,0,0,1,1.63-.11,1,1,0,0,1,.82,1.1c0,.41,0,.83,0,1.24S23.3,32.07,23,32.06Zm-.17-9.65c0,.8-.2,1-.85,1s-.7-.22-.71-.73c0-.11,0-.22,0-.33,0-.3,0-.59.33-.72a1.09,1.09,0,0,1,1.06.09C23,21.89,22.82,22.21,22.87,22.41Zm-.65-4c.49,0,.64.22.64.71v.33c0,.3,0,.6-.31.73a1.11,1.11,0,0,1-1.06-.08c-.29-.2-.14-.5-.18-.71C21.31,18.6,21.54,18.37,22.22,18.44Zm.54-6.19c.35,0,.6,0,.54.47s0,.53-.56.53-.6,0-.6-.49S22.14,12.27,22.76,12.25Zm-.94.84c0,.12-.07.16-.19.16h-.44c-.14-.05-.42.12-.49-.09a2.81,2.81,0,0,1,0-.82c0-.08.1-.08.17-.08h.29C21.83,12.25,22,12.4,21.82,13.09Zm2.06.17c-.48,0-.15-.38-.26-.51,0-.49.17-.61.62-.5.1,0,.14.07.13.16s0,.23,0,.33C24.31,13,24.34,13.31,23.88,13.26ZM36.67,33.59a.61.61,0,0,1-.66.25A72.26,72.26,0,0,0,27.32,33c-.26,0-.55.06-.48-.41a.4.4,0,0,0-.42-.46c-.29,0-.33-.14-.36-.36l-.51-5.05c-.32-3.1-.65-6.2-1-9.3l-.33-3.2c0-.12-.05-.27.15-.26s.33-.18.36-.4l.12-1c0-.1,0-.22.12-.27a.19.19,0,0,0,.12-.27c-.05-.15-.18-.14-.31-.14H19.12c-.14,0-.33-.06-.38.15s0,.24.21.28.08.15.09.24c.05.36.1.71.14,1.07,0,.19.12.32.31.31s.29.14.26.36Q19,20.87,18.27,27.46l-.48,4.3c0,.2-.05.32-.3.33a.48.48,0,0,0-.47.63c.06.28,0,.32-.27.34A71.42,71.42,0,0,0,8.9,34a1.35,1.35,0,0,0-.29,0c-.72.32-1.16,0-1.61-.58a19.46,19.46,0,0,1-4.42-11A18.06,18.06,0,0,1,4.2,13.16C7.07,7.22,11.63,3.27,18.21,2a18.72,18.72,0,0,1,12,1.54A18.67,18.67,0,0,1,41.13,18.71,18.79,18.79,0,0,1,36.67,33.59Z"/><path class="cls-1" d="M11.28,20.29a.38.38,0,0,0-.45.38.39.39,0,0,0,.41.46.39.39,0,0,0,.43-.39A.4.4,0,0,0,11.28,20.29Z"/><path class="cls-1" d="M17.39,4.72a1.15,1.15,0,0,1,.08-1.5c-.82.28-1.22.8-1.16,1.41A1.42,1.42,0,0,0,17.5,5.88,1.46,1.46,0,0,0,19.14,5,1.41,1.41,0,0,1,17.39,4.72Zm-.53.59a1,1,0,0,1,.06-1.48,1.43,1.43,0,0,0,1.45,1.59A1.12,1.12,0,0,1,16.86,5.31Z"/><path class="cls-1" d="M11.3,7.81a.64.64,0,0,0-.64.62.63.63,0,0,0,.6.65.64.64,0,0,0,0-1.27Zm0,1a.34.34,0,0,1-.37-.36.35.35,0,0,1,.4-.38.36.36,0,0,1,.35.39A.36.36,0,0,1,11.28,8.81Z"/><path class="cls-1" d="M32.31,8.31a.63.63,0,0,0-.63.63.62.62,0,0,0,.62.63A.65.65,0,0,0,32.94,9,.66.66,0,0,0,32.31,8.31Zm.36.65a.37.37,0,1,1-.73,0c0-.23.15-.33.36-.36S32.69,8.72,32.67,9Z"/><polygon class="cls-1" points="6.17 17.85 5.99 17.5 5.82 17.85 5.44 17.9 5.71 18.18 5.65 18.56 5.99 18.38 6.34 18.56 6.27 18.18 6.55 17.9 6.17 17.85"/><polygon class="cls-1" points="28.26 14.42 28.08 14.06 27.9 14.42 27.5 14.48 27.79 14.77 27.72 15.17 28.08 14.98 28.44 15.17 28.37 14.77 28.67 14.48 28.26 14.42"/><polygon class="cls-1" points="31.41 22.47 31.25 22.14 31.09 22.47 30.73 22.52 30.99 22.78 30.93 23.14 31.25 22.97 31.57 23.14 31.51 22.78 31.77 22.52 31.41 22.47"/><rect class="cls-1" x="13.36" y="13.96" width="0.8" height="0.8" rx="0.05" transform="translate(-6.09 13.15) rotate(-42.73)"/><rect class="cls-1" x="27.27" y="6.03" width="0.8" height="0.8" rx="0.05" transform="translate(2.98 20.49) rotate(-42.73)"/><rect class="cls-1" x="35.47" y="18.12" width="0.8" height="0.8" rx="0.05" transform="translate(-3.05 29.26) rotate(-42.73)"/><rect class="cls-1" x="21.77" y="10.04" width="0.52" height="0.32" rx="0.1"/><path class="cls-1" d="M24.12,8.5a.57.57,0,0,0-.58-.57H23V7.24a.45.45,0,0,0-.45-.45h0V5a.2.2,0,0,0-.17-.2V4.66a.49.49,0,0,0-.36-.5V2.08h-.16V4.16a.5.5,0,0,0-.35.5v.1a.2.2,0,0,0-.14.19V6.79h.12a.46.46,0,0,0-.46.45v.69h-.29a.83.83,0,0,0-.83.82v2.18h4.16Zm-1.46,2.18H21.47V9.79a.36.36,0,0,1,.36-.35h0V8.93h.43v.51h0a.35.35,0,0,1,.35.35Z"/><path class="cls-1" d="M60.94,25.78H52.66V15h2.52v8.46h5.76Z"/><path class="cls-1" d="M62.47,15.51v-2H65v2Zm0,10.27v-9H65v9Z"/><path class="cls-1" d="M71.83,25.78H68.5L66.43,23.7V18.84l2.07-2.07h6.57V27.31L73,29.38H67.33V27h4.5l.72-.72V19.11H69.67l-.72.72v2.88l.72.72h2.16Z"/><path class="cls-1" d="M82.46,25.78v-6l-.72-.72H79.39l-.36.36v6.31H76.51V13.17H79v3.42l-.68.69.41.39.9-.9h3.25L85,18.84v6.94Z"/><path class="cls-1" d="M91.46,25.78h-3L86.42,23.7V13.53h2.52V17h2.34v2.34H88.94v3.33l.72.72h1.8Z"/><path class="cls-1" d="M98.84,25.78v-6l-.72-.72H95.78l-.36.36v6.31H92.9V13.17h2.52v3.42l-.68.69.41.39.9-.9h3.24l2.07,2.07v6.94Z"/><path class="cls-1" d="M102.8,23.7V18.84l2.07-2.07h4.86l2.07,2.07V23.7l-2.07,2.08h-4.86Zm2.52-3.87v2.88l.72.72h2.52l.72-.72V19.83l-.72-.72H106Z"/><path class="cls-1" d="M115.77,16.77v5.94l.72.72h2.34l.36-.36v-6.3h2.52v9h-2.07l-.18-.9-.9.9h-3.24l-2.07-2.08V16.77Z"/><path class="cls-1" d="M123.15,23.43h5.76l.54-.54-.54-.54h-3.69l-2.07-2.07V18.84l2.07-2.07h6.39v2.34h-5.22l-.54.54.54.54h3.69l2.07,2.07V23.7l-2.07,2.08h-6.93Z"/><path class="cls-1" d="M137,20.37h3.06v-.54l-.72-.72h-2.52l-.72.72v2.88l.72.72h4.86v2.35h-6l-2.07-2.08V18.84l2.07-2.07h4.86l2.07,2.07v3.69H137Z"/><path class="cls-1" d="M168.31,25.14h-5.74l-.93-3.46h-9.81l-.93,3.46h-5.78L151.63.72H161.8Zm-15.05-8.75h7L157.45,6H156Z"/><path class="cls-1" d="M180.52,5.4h-2V20.46h2v4.68h-9.77V20.46h2V5.4h-2V.72h9.77Z"/><path class="cls-1" d="M54.4,34.89h2.45c.13,0,.19.06.19.18v3.68a.42.42,0,0,1-.22.38,4.72,4.72,0,0,1-2.48.56q-3.92,0-3.91-4.18t4-4.17a4.41,4.41,0,0,1,2.19.49c.13.06.18.13.15.22l-.19.5a.19.19,0,0,1-.27.1,4,4,0,0,0-1.81-.4,3,3,0,0,0-2.3.79,3.59,3.59,0,0,0-.72,2.47A3.62,3.62,0,0,0,52.17,38a2.84,2.84,0,0,0,2.23.79,3.47,3.47,0,0,0,1.67-.35V35.76H54.4q-.21,0-.21-.18v-.51Q54.19,34.89,54.4,34.89Z"/><path class="cls-1" d="M58.73,37.52V33.78a.17.17,0,0,1,.19-.19h.56c.12,0,.18.06.18.19v3.59c0,1,.47,1.47,1.42,1.47a1.84,1.84,0,0,0,1.28-.45,1.58,1.58,0,0,0,.5-1.23V33.78c0-.13.06-.19.18-.19h.57c.11,0,.17.06.17.19v5.61c0,.13-.06.19-.17.19H63c-.12,0-.18-.06-.18-.17v-.77a2.47,2.47,0,0,1-3.6.48A2.3,2.3,0,0,1,58.73,37.52Z"/><path class="cls-1" d="M66.56,31.7v.93a.17.17,0,0,1-.18.19H65.8c-.11,0-.17-.07-.17-.19V31.7c0-.13.06-.19.17-.19h.58C66.5,31.51,66.56,31.57,66.56,31.7Zm0,2.08v5.61c0,.13-.06.19-.18.19H65.8c-.11,0-.17-.06-.17-.19V33.78c0-.13.06-.19.17-.19h.58C66.5,33.59,66.56,33.65,66.56,33.78Z"/><path class="cls-1" d="M72.89,39.41v-.84a2.08,2.08,0,0,1-2.14,1.12,2.5,2.5,0,0,1-2-.79,3.4,3.4,0,0,1-.71-2.33,3.42,3.42,0,0,1,.71-2.33,2.54,2.54,0,0,1,2-.79,2.75,2.75,0,0,1,1.31.3,1.69,1.69,0,0,1,.82.85v-3a.16.16,0,0,1,.18-.18h.57a.17.17,0,0,1,.19.18v7.75a.17.17,0,0,1-.19.19h-.57A.15.15,0,0,1,72.89,39.41Zm-.51-1.13a2.53,2.53,0,0,0,.51-1.71,2.57,2.57,0,0,0-.51-1.71,1.85,1.85,0,0,0-1.45-.59,1.76,1.76,0,0,0-1.41.55A2.63,2.63,0,0,0,69,36.57a2.61,2.61,0,0,0,.48,1.75,1.73,1.73,0,0,0,1.41.55A1.81,1.81,0,0,0,72.38,38.28Z"/><path class="cls-1" d="M76.62,31.7v.93c0,.12-.05.19-.17.19h-.58c-.11,0-.17-.07-.17-.19V31.7c0-.13.06-.19.17-.19h.58C76.57,31.51,76.62,31.57,76.62,31.7Zm0,2.08v5.61c0,.13-.05.19-.17.19h-.58c-.11,0-.17-.06-.17-.19V33.78c0-.13.06-.19.17-.19h.58C76.57,33.59,76.62,33.65,76.62,33.78Z"/><path class="cls-1" d="M83.57,35.63v3.76c0,.13-.06.19-.18.19h-.57a.17.17,0,0,1-.19-.19V35.75a1.28,1.28,0,0,0-1.46-1.43,1.82,1.82,0,0,0-1.32.47A1.64,1.64,0,0,0,79.38,36v3.36a.17.17,0,0,1-.19.19h-.57c-.11,0-.17-.06-.17-.19V33.78c0-.13.06-.19.17-.19h.56c.12,0,.18.06.18.17l0,.76A2.5,2.5,0,0,1,83,34,2.26,2.26,0,0,1,83.57,35.63Z"/><path class="cls-1" d="M90.39,33.78v4.94a2,2,0,0,1-.72,1.67,3,3,0,0,1-2,.6,4.89,4.89,0,0,1-2-.35c-.11,0-.15-.11-.12-.18l.17-.48a.16.16,0,0,1,.22-.11,4.72,4.72,0,0,0,1.73.3,2,2,0,0,0,1.3-.39,1.35,1.35,0,0,0,.49-1.11V38a1.67,1.67,0,0,1-.75.78,2.53,2.53,0,0,1-1.18.27,2.44,2.44,0,0,1-1.83-.7A2.83,2.83,0,0,1,85,36.27a2.94,2.94,0,0,1,.67-2.11,2.4,2.4,0,0,1,1.81-.71,2.59,2.59,0,0,1,1.2.29,1.61,1.61,0,0,1,.77.73v-.71a.17.17,0,0,1,.18-.17h.56C90.33,33.59,90.39,33.65,90.39,33.78Zm-.92,2.41A2,2,0,0,0,89,34.73a1.7,1.7,0,0,0-1.29-.48c-1.16,0-1.73.67-1.73,2s.57,2,1.73,2A1.64,1.64,0,0,0,89,37.75,2.33,2.33,0,0,0,89.47,36.19Z"/><path class="cls-1" d="M100.29,33.79,98.42,39.2a3.09,3.09,0,0,1-.7,1.32,1.8,1.8,0,0,1-1.24.38,2.43,2.43,0,0,1-.84-.13c-.11,0-.16-.1-.14-.17l.14-.48a.19.19,0,0,1,.2-.13,3,3,0,0,0,.58.09A.91.91,0,0,0,97,39.9a.57.57,0,0,0,.22-.46.92.92,0,0,0-.09-.38l-2-5.27c-.06-.13,0-.2.12-.2h.6c.09,0,.15.06.19.18l1.11,3,.65,1.78h0l.56-1.79,1-3.05c0-.11.1-.17.2-.17h.61C100.29,33.59,100.33,33.66,100.29,33.79Z"/><path class="cls-1" d="M103.94,39.69a2.71,2.71,0,0,1-2.09-.81,3.24,3.24,0,0,1-.77-2.31,3.23,3.23,0,0,1,.77-2.3,3.06,3.06,0,0,1,4.17,0,3.18,3.18,0,0,1,.77,2.3,3.19,3.19,0,0,1-.77,2.31A2.72,2.72,0,0,1,103.94,39.69Zm0-.82a1.76,1.76,0,0,0,1.4-.57,2.61,2.61,0,0,0,.49-1.73,2.59,2.59,0,0,0-.49-1.72,2,2,0,0,0-2.81,0,3.28,3.28,0,0,0,0,3.45A1.77,1.77,0,0,0,103.94,38.87Z"/><path class="cls-1" d="M108.2,37.52V33.78a.17.17,0,0,1,.19-.19H109c.12,0,.18.06.18.19v3.59c0,1,.47,1.47,1.42,1.47a1.84,1.84,0,0,0,1.28-.45,1.58,1.58,0,0,0,.5-1.23V33.78a.17.17,0,0,1,.19-.19h.56c.12,0,.17.06.17.19v5.61c0,.13,0,.19-.17.19h-.56c-.13,0-.19-.06-.19-.17v-.77a2,2,0,0,1-2,1,2.07,2.07,0,0,1-1.6-.57A2.3,2.3,0,0,1,108.2,37.52Z"/><path class="cls-1" d="M123.77,35.63v3.76c0,.13,0,.19-.17.19H123c-.11,0-.17-.06-.17-.19V35.76a1.3,1.3,0,0,0-1.49-1.44,1.81,1.81,0,0,0-1.33.48,1.67,1.67,0,0,0-.49,1.24v3.37c0,.11-.06.17-.18.17h-.57c-.12,0-.18-.06-.18-.19V31.64a.16.16,0,0,1,.18-.18h.57a.16.16,0,0,1,.18.18v2.89a1.75,1.75,0,0,1,.71-.75,2.5,2.5,0,0,1,1.35-.33,2.13,2.13,0,0,1,1.62.58A2.22,2.22,0,0,1,123.77,35.63Z"/><path class="cls-1" d="M128.09,39.69a2.75,2.75,0,0,1-2.1-.81,3.23,3.23,0,0,1-.76-2.31,3.22,3.22,0,0,1,.76-2.3,3.07,3.07,0,0,1,4.18,0,3.23,3.23,0,0,1,.77,2.3,3.24,3.24,0,0,1-.77,2.31A2.73,2.73,0,0,1,128.09,39.69Zm0-.82a1.74,1.74,0,0,0,1.39-.57,2.55,2.55,0,0,0,.5-1.73,2.54,2.54,0,0,0-.5-1.72,1.74,1.74,0,0,0-1.39-.58,1.77,1.77,0,0,0-1.41.58,2.59,2.59,0,0,0-.49,1.72,2.61,2.61,0,0,0,.49,1.73A1.77,1.77,0,0,0,128.09,38.87Z"/><path class="cls-1" d="M137.29,35.86v3.53a.17.17,0,0,1-.19.19h-.57c-.12,0-.18-.06-.18-.19v-3.7c0-.91-.43-1.37-1.28-1.37a1.66,1.66,0,0,0-1.23.45,1.61,1.61,0,0,0-.45,1.19v3.43c0,.13-.06.19-.18.19h-.57a.17.17,0,0,1-.19-.19V33.78a.17.17,0,0,1,.19-.19h.57c.12,0,.18.06.18.17v.76a1.68,1.68,0,0,1,.65-.74,2.13,2.13,0,0,1,1.25-.33,1.69,1.69,0,0,1,1.81,1.12,2.13,2.13,0,0,1,2.08-1.12,1.88,1.88,0,0,1,1.48.57,2.27,2.27,0,0,1,.51,1.56v3.81c0,.13-.06.19-.17.19h-.57c-.12,0-.18-.06-.18-.19V35.71a1.52,1.52,0,0,0-.31-1,1.25,1.25,0,0,0-1-.35,1.7,1.7,0,0,0-1.21.44A1.47,1.47,0,0,0,137.29,35.86Z"/><path class="cls-1" d="M145.74,38.92a3.15,3.15,0,0,0,1.51-.37c.11-.06.19,0,.25.1l.18.43c0,.09,0,.16-.13.21a4,4,0,0,1-1.86.43,3,3,0,0,1-2.24-.84,3.11,3.11,0,0,1-.82-2.28,3.33,3.33,0,0,1,.74-2.33,2.59,2.59,0,0,1,2-.82,2.49,2.49,0,0,1,1.94.77,3,3,0,0,1,.68,2v.58c0,.12-.06.18-.19.18h-4.27a2,2,0,0,0,.65,1.39A2.22,2.22,0,0,0,145.74,38.92Zm-.35-4.67c-1.16,0-1.77.66-1.84,2h3.56v-.06a2.06,2.06,0,0,0-.44-1.4A1.57,1.57,0,0,0,145.39,34.25Z"/></svg>