<svg id="Layer_1" data-name="Layer 1" xmlns="http://www.w3.org/2000/svg" viewBox="0 0 56 40"><defs><style>.cls-1{fill:#00a8e0;}</style></defs><path class="cls-1" d="M30.33,10.5H26A.23.23,0,1,0,26,11h4.32a.23.23,0,1,0,0-.45Z"/><path class="cls-1" d="M28,.82A19.18,19.18,0,1,0,47.18,20.06,19.19,19.19,0,0,0,28,.82Zm-1.8,11.84c-.37,0-.4-.09-.44-.71,0-.37.23-.22.39-.25.43-.08.47.17.41.49S26.57,12.7,26.17,12.66Zm2.94,17.85c-.36,0-.73,0-1.09,0h0c-.36,0-.71,0-1.06,0s-.37-.05-.35-.34,0-.86,0-1.29a.77.77,0,0,1,.5-.8A2,2,0,0,1,28.66,28,.9.9,0,0,1,29.43,29c0,.39,0,.78,0,1.17S29.35,30.52,29.11,30.51Zm-.17-9.17c0,.76-.18,1-.8.93s-.67-.21-.67-.69c0-.11,0-.21,0-.32,0-.28,0-.56.31-.68a1.07,1.07,0,0,1,1,.09C29,20.85,28.9,21.15,28.94,21.34Zm-.61-3.77c.46.05.6.21.61.68,0,.11,0,.21,0,.31,0,.28,0,.57-.3.69a1.07,1.07,0,0,1-1-.07c-.27-.19-.13-.48-.17-.67C27.46,17.73,27.68,17.51,28.33,17.57Zm.51-5.88c.33,0,.57,0,.52.46s0,.5-.54.5-.57,0-.57-.47S28.25,11.71,28.84,11.69Zm-.9.8c0,.11-.06.16-.17.16h-.43c-.13-.05-.39.11-.46-.09a2.54,2.54,0,0,1,0-.78c0-.07.1-.08.16-.08h.28C28,11.7,28.07,11.83,27.94,12.49Zm2,.17c-.45-.05-.14-.36-.24-.49,0-.46.16-.58.59-.47.09,0,.13.06.12.15s0,.21,0,.32S30.34,12.7,29.9,12.66ZM42.05,32a.58.58,0,0,1-.63.23,71.14,71.14,0,0,0-8.25-.83c-.24,0-.52.06-.45-.39a.39.39,0,0,0-.4-.44c-.28,0-.32-.13-.34-.34-.16-1.6-.33-3.19-.49-4.79-.31-2.94-.62-5.89-.92-8.83-.11-1-.21-2-.31-3,0-.12-.05-.25.14-.24s.31-.18.34-.38.07-.62.12-.93c0-.1,0-.22.11-.27s.14-.14.11-.25-.17-.13-.29-.13H25.38c-.13,0-.31-.05-.36.14s.05.23.2.27.07.15.09.23c0,.34.09.68.13,1s.12.31.29.3.28.14.25.34q-.7,6.26-1.4,12.52c-.15,1.36-.31,2.72-.46,4.08,0,.19,0,.31-.29.32s-.5.27-.44.6,0,.3-.25.31a68.94,68.94,0,0,0-7.46.85,1.17,1.17,0,0,0-.27.05c-.69.3-1.11,0-1.54-.55A18.57,18.57,0,0,1,9.68,21.33a17,17,0,0,1,1.54-8.77c2.72-5.64,7-9.39,13.3-10.6A17.72,17.72,0,0,1,35.89,3.42,17.7,17.7,0,0,1,46.28,17.83,17.85,17.85,0,0,1,42.05,32Z"/><path class="cls-1" d="M17.94,19.33a.37.37,0,0,0-.43.36.4.4,0,1,0,.8.07A.39.39,0,0,0,17.94,19.33Z"/><path class="cls-1" d="M23.75,4.55a1.09,1.09,0,0,1,.06-1.43c-.77.27-1.15.76-1.09,1.35a1.35,1.35,0,0,0,1.13,1.18A1.38,1.38,0,0,0,25.4,4.8,1.32,1.32,0,0,1,23.75,4.55Zm-.51.55a.9.9,0,0,1,.06-1.4c0,.94.42,1.37,1.38,1.51A1.06,1.06,0,0,1,23.24,5.1Z"/><path class="cls-1" d="M18,7.48a.61.61,0,0,0-.61.59.59.59,0,0,0,.57.61.6.6,0,0,0,.62-.58A.62.62,0,0,0,18,7.48Zm0,.95a.32.32,0,0,1-.35-.34A.33.33,0,0,1,18,7.73a.34.34,0,0,1,.34.37A.33.33,0,0,1,17.94,8.43Z"/><path class="cls-1" d="M37.9,8a.6.6,0,0,0-.59.6.58.58,0,0,0,.58.6.61.61,0,0,0,.61-.59A.62.62,0,0,0,37.9,8Zm.35.62a.35.35,0,1,1-.7,0,.35.35,0,0,1,.35-.35C38.11,8.23,38.26,8.34,38.25,8.57Z"/><polygon class="cls-1" points="13.08 17.01 12.92 16.68 12.76 17.01 12.39 17.07 12.66 17.32 12.59 17.69 12.92 17.52 13.25 17.69 13.19 17.32 13.45 17.07 13.08 17.01"/><polygon class="cls-1" points="34.06 13.76 33.89 13.41 33.72 13.76 33.34 13.81 33.62 14.09 33.55 14.47 33.89 14.29 34.24 14.47 34.17 14.09 34.45 13.81 34.06 13.76"/><polygon class="cls-1" points="37.05 21.4 36.9 21.09 36.75 21.4 36.41 21.45 36.65 21.69 36.59 22.03 36.9 21.87 37.21 22.03 37.15 21.69 37.4 21.45 37.05 21.4"/><rect class="cls-1" x="19.92" y="13.32" width="0.76" height="0.76" rx="0.05" transform="translate(-3.91 17.41) rotate(-42.73)"/><rect class="cls-1" x="33.13" y="5.79" width="0.76" height="0.76" rx="0.05" transform="translate(4.7 24.37) rotate(-42.73)"/><rect class="cls-1" x="40.91" y="17.27" width="0.76" height="0.76" rx="0.05" transform="translate(-1.02 32.7) rotate(-42.73)"/><rect class="cls-1" x="27.9" y="9.6" width="0.49" height="0.31" rx="0.1"/><path class="cls-1" d="M30.13,8.14a.55.55,0,0,0-.55-.55h-.47V6.94a.43.43,0,0,0-.43-.43h0V4.76a.18.18,0,0,0-.16-.18V4.49A.48.48,0,0,0,28.19,4V2H28V4a.48.48,0,0,0-.33.48v.09a.19.19,0,0,0-.13.18V6.51h.11a.43.43,0,0,0-.43.43v.65H27a.79.79,0,0,0-.79.79v2.07h3.95Zm-1.38,2.07H27.62V9.36A.33.33,0,0,1,28,9h0V8.55h.41V9h0a.34.34,0,0,1,.34.33Z"/></svg>
