<svg id="Layer_1" data-name="Layer 1" xmlns="http://www.w3.org/2000/svg" viewBox="0 0 269 56"><defs><style>.cls-1{fill:#ef305e;}.cls-2{fill:#fff;}</style></defs><path class="cls-1" d="M31.94,15.88H26.19a.29.29,0,0,0-.3.3.3.3,0,0,0,.3.3h5.75a.3.3,0,0,0,.3-.3A.29.29,0,0,0,31.94,15.88Z"/><path class="cls-1" d="M28.79,3A25.53,25.53,0,1,0,54.37,28.6,25.56,25.56,0,0,0,28.79,3ZM26.4,18.75c-.49-.05-.54-.11-.58-.95,0-.48.31-.28.52-.32.57-.12.62.22.55.64S26.94,18.8,26.4,18.75ZM30.31,42.5c-.48,0-1,0-1.45,0h0c-.47,0-.94,0-1.4,0s-.5-.07-.48-.45c0-.57,0-1.15,0-1.72a1.05,1.05,0,0,1,.66-1.07,2.71,2.71,0,0,1,2.07-.14,1.19,1.19,0,0,1,1,1.39c0,.52,0,1,0,1.56C30.77,42.44,30.64,42.52,30.31,42.5Zm-.22-12.19c0,1-.25,1.27-1.07,1.24-.65,0-.89-.28-.89-.93,0-.14,0-.28,0-.42,0-.37,0-.74.41-.9a1.41,1.41,0,0,1,1.34.11C30.22,29.66,30,30.05,30.09,30.31Zm-.81-5c.61.06.8.28.8.9v.42c0,.37,0,.75-.39.92a1.39,1.39,0,0,1-1.34-.11c-.36-.24-.18-.63-.23-.89C28.12,25.5,28.41,25.2,29.28,25.29ZM30,17.47c.44,0,.75,0,.68.6s0,.66-.72.67-.75,0-.75-.63S29.17,17.49,30,17.47Zm-1.2,1.06c0,.15-.08.21-.23.21H28c-.17-.07-.52.15-.61-.13a3.22,3.22,0,0,1,0-1c0-.09.12-.1.21-.1h.36C28.78,17.47,28.92,17.65,28.76,18.53Zm2.61.22c-.6-.06-.19-.48-.33-.65,0-.62.22-.77.79-.63a.18.18,0,0,1,.16.21c0,.14,0,.28,0,.41C31.91,18.44,32,18.81,31.37,18.75ZM47.53,44.43a.77.77,0,0,1-.83.32,94.09,94.09,0,0,0-11-1.11c-.33,0-.7.07-.6-.51a.53.53,0,0,0-.54-.59c-.37,0-.42-.18-.45-.46-.22-2.12-.43-4.25-.65-6.37Q32.87,29.83,32.26,24l-.42-4c0-.15-.06-.34.19-.32s.42-.24.45-.51.1-.83.16-1.24c0-.12,0-.29.14-.35a.24.24,0,0,0,.16-.33c-.07-.19-.24-.18-.39-.18h-7.2c-.18,0-.41-.07-.48.18s.06.31.27.36.1.2.11.31c.07.45.13.89.18,1.34,0,.25.15.41.39.4s.36.18.33.45q-.93,8.32-1.87,16.66c-.2,1.81-.41,3.62-.61,5.43,0,.25-.05.41-.38.43s-.67.36-.59.79,0,.4-.34.42a89.55,89.55,0,0,0-9.93,1.14,1.34,1.34,0,0,0-.35.05c-.92.4-1.48,0-2-.72A24.61,24.61,0,0,1,4.46,30.29,22.7,22.7,0,0,1,6.51,18.62c3.62-7.51,9.38-12.49,17.7-14.11A23.61,23.61,0,0,1,39.34,6.45c8,3.91,12.7,10.35,13.82,19.18A23.71,23.71,0,0,1,47.53,44.43Z"/><path class="cls-1" d="M15.45,27.63a.48.48,0,0,0-.57.47.49.49,0,0,0,.51.59.49.49,0,0,0,.55-.49A.5.5,0,0,0,15.45,27.63Z"/><path class="cls-1" d="M23.17,8a1.44,1.44,0,0,1,.1-1.89c-1,.36-1.54,1-1.46,1.79a1.78,1.78,0,0,0,1.5,1.57A1.84,1.84,0,0,0,25.38,8.3,1.76,1.76,0,0,1,23.17,8Zm-.67.74a1.21,1.21,0,0,1,.08-1.86c0,1.25.56,1.82,1.83,2A1.41,1.41,0,0,1,22.5,8.69Z"/><path class="cls-1" d="M15.48,11.86a.8.8,0,0,0-.05,1.6.79.79,0,0,0,.81-.77A.81.81,0,0,0,15.48,11.86Zm0,1.26a.41.41,0,0,1-.46-.45.44.44,0,0,1,.49-.48.47.47,0,0,1,.45.49A.45.45,0,0,1,15.45,13.12Z"/><path class="cls-1" d="M42,12.49a.8.8,0,0,0,0,1.6.82.82,0,0,0,.81-.79A.83.83,0,0,0,42,12.49Zm.46.82a.47.47,0,1,1-.93-.05c0-.29.19-.41.46-.45S42.5,13,42.48,13.31Z"/><polygon class="cls-1" points="8.98 24.54 8.77 24.1 8.55 24.54 8.06 24.61 8.42 24.96 8.33 25.44 8.77 25.21 9.2 25.44 9.12 24.96 9.47 24.61 8.98 24.54"/><polygon class="cls-1" points="36.91 20.21 36.68 19.75 36.45 20.21 35.94 20.29 36.31 20.65 36.22 21.16 36.68 20.92 37.13 21.16 37.05 20.65 37.42 20.29 36.91 20.21"/><polygon class="cls-1" points="40.89 30.38 40.68 29.97 40.48 30.38 40.02 30.45 40.35 30.77 40.27 31.23 40.68 31.01 41.09 31.23 41.01 30.77 41.34 30.45 40.89 30.38"/><rect class="cls-1" x="18.08" y="19.63" width="1.01" height="1.01" rx="0.07" transform="translate(-8.73 17.96) rotate(-42.73)"/><rect class="cls-1" x="35.66" y="9.62" width="1.01" height="1.01" rx="0.07" transform="translate(2.73 27.22) rotate(-42.73)"/><rect class="cls-1" x="46.02" y="24.89" width="1.01" height="1.01" rx="0.07" transform="translate(-4.89 38.31) rotate(-42.73)"/><rect class="cls-1" x="28.7" y="14.68" width="0.65" height="0.41" rx="0.13"/><path class="cls-1" d="M31.67,12.73a.72.72,0,0,0-.73-.72h-.63v-.87a.56.56,0,0,0-.57-.57h0V8.24A.25.25,0,0,0,29.54,8V7.87a.63.63,0,0,0-.46-.63V4.62h-.2V7.25a.62.62,0,0,0-.44.62V8a.27.27,0,0,0-.18.24v2.33h.15a.56.56,0,0,0-.57.57V12h-.38a1,1,0,0,0-1,1v2.76h5.25Zm-1.84,2.76h-1.5V14.36a.45.45,0,0,1,.45-.44h0v-.64h.55v.64h.05a.45.45,0,0,1,.45.44Z"/><path class="cls-2" d="M78.2,34.56H67.73V20.91h3.19V31.6H78.2Z"/><path class="cls-2" d="M80.13,21.59v-2.5h3.19v2.5Zm0,13V23.19h3.19V34.56Z"/><path class="cls-2" d="M92,34.56H87.75l-2.61-2.62V25.8l2.61-2.61h8.31v13.3l-2.62,2.62H86.27v-3H92l.91-.91v-9.1H89.23l-.91.91v3.64l.91.91H92Z"/><path class="cls-2" d="M105.38,34.56V27.05l-.91-.91h-3l-.46.46v8H97.88V18.63h3.18V23l-.86.86.52.5,1.14-1.13H106l2.62,2.61v8.76Z"/><path class="cls-2" d="M116.76,34.56H113l-2.62-2.62V19.09h3.19v4.44h3v2.95h-3v4.21l.91.91h2.27Z"/><path class="cls-2" d="M126.09,34.56V27.05l-.91-.91h-3l-.45.46v8h-3.19V18.63h3.19V23l-.87.86.52.5,1.14-1.13h4.1l2.61,2.61v8.76Z"/><path class="cls-2" d="M131.09,31.94V25.8l2.62-2.61h6.14l2.62,2.61v6.14l-2.62,2.62h-6.14Zm3.19-4.89v3.64l.91.91h3.18l.91-.91V27.05l-.91-.91h-3.18Z"/><path class="cls-2" d="M147.48,23.19v7.5l.91.91h3l.46-.45v-8H155V34.56h-2.61l-.23-1.14L151,34.56h-4.09l-2.62-2.62V23.19Z"/><path class="cls-2" d="M156.8,31.6h7.28l.69-.68-.69-.68h-4.66l-2.62-2.62V25.8l2.62-2.61h8.08v2.95h-6.6l-.68.69.68.68h4.66l2.62,2.61v1.82l-2.62,2.62H156.8Z"/><path class="cls-2" d="M174.32,27.74h3.87v-.69l-.91-.91H174.1l-.91.91v3.64l.91.91h6.14v3h-7.62L170,31.94V25.8l2.62-2.61h6.14l2.62,2.61v4.67h-7.06Z"/><path class="cls-2" d="M213.87,33.76h-7.25l-1.18-4.37H193.05l-1.18,4.37h-7.31l8.23-30.85h12.85Zm-19-11.06h8.79l-3.5-13.11h-1.8Z"/><path class="cls-2" d="M229.3,8.82h-2.57v19h2.57v5.92H217V27.84h2.57v-19H217V2.91H229.3Z"/><path class="cls-2" d="M69.93,46.07H73a.21.21,0,0,1,.24.24V51a.53.53,0,0,1-.27.48,6,6,0,0,1-3.14.72c-3.3,0-4.94-1.76-4.94-5.29s1.67-5.27,5-5.27a5.54,5.54,0,0,1,2.77.63c.17.06.23.16.19.27l-.24.63a.24.24,0,0,1-.34.13A5,5,0,0,0,70,42.74a3.77,3.77,0,0,0-2.9,1,4.53,4.53,0,0,0-.92,3.12A4.57,4.57,0,0,0,67.11,50a3.6,3.6,0,0,0,2.82,1,4.63,4.63,0,0,0,2.12-.43V47.18H69.93c-.18,0-.26-.08-.26-.23v-.64C69.67,46.15,69.75,46.07,69.93,46.07Z"/><path class="cls-2" d="M75.41,49.4V44.67c0-.16.07-.23.23-.23h.72c.14,0,.21.07.21.23v4.54a1.62,1.62,0,0,0,1.8,1.86A2.32,2.32,0,0,0,80,50.5,2,2,0,0,0,80.62,49V44.67a.2.2,0,0,1,.23-.23h.72c.15,0,.22.07.22.23v7.1c0,.15-.07.23-.22.23h-.72c-.15,0-.23-.07-.23-.22v-1a3.11,3.11,0,0,1-4.55.6A2.91,2.91,0,0,1,75.41,49.4Z"/><path class="cls-2" d="M85.29,42v1.18q0,.24-.21.24h-.73c-.15,0-.22-.08-.22-.24V42c0-.15.07-.23.22-.23h.73C85.22,41.81,85.29,41.89,85.29,42Zm0,2.63v7.1c0,.15-.07.23-.21.23h-.73c-.15,0-.22-.08-.22-.23v-7.1c0-.16.07-.23.22-.23h.73C85.22,44.44,85.29,44.51,85.29,44.67Z"/><path class="cls-2" d="M93.3,51.78V50.73a2.63,2.63,0,0,1-2.7,1.42,3.15,3.15,0,0,1-2.48-1,4.28,4.28,0,0,1-.9-2.95,4.27,4.27,0,0,1,.9-2.94,3.15,3.15,0,0,1,2.48-1,3.52,3.52,0,0,1,1.65.38,2.14,2.14,0,0,1,1,1.07V42c0-.15.08-.22.24-.22h.71c.16,0,.24.07.24.22v9.8a.21.21,0,0,1-.24.23h-.71A.19.19,0,0,1,93.3,51.78Zm-.65-1.41a3.93,3.93,0,0,0,0-4.33,2.32,2.32,0,0,0-1.83-.74A2.25,2.25,0,0,0,89,46a3.34,3.34,0,0,0-.6,2.21,3.35,3.35,0,0,0,.6,2.22,2.25,2.25,0,0,0,1.79.69A2.32,2.32,0,0,0,92.65,50.37Z"/><path class="cls-2" d="M98,42v1.18c0,.16-.08.24-.22.24h-.73c-.15,0-.22-.08-.22-.24V42c0-.15.07-.23.22-.23h.73A.2.2,0,0,1,98,42Zm0,2.63v7.1a.2.2,0,0,1-.22.23h-.73c-.15,0-.22-.08-.22-.23v-7.1c0-.16.07-.23.22-.23h.73C97.94,44.44,98,44.51,98,44.67Z"/><path class="cls-2" d="M106.79,47v4.76a.2.2,0,0,1-.23.23h-.71a.21.21,0,0,1-.24-.23v-4.6a1.62,1.62,0,0,0-1.85-1.81,2.25,2.25,0,0,0-1.66.59,2.07,2.07,0,0,0-.61,1.57v4.25a.21.21,0,0,1-.23.23h-.72a.2.2,0,0,1-.22-.23v-7.1c0-.16.08-.23.22-.23h.7c.16,0,.24.07.24.22v.94a3.18,3.18,0,0,1,4.62-.61A2.82,2.82,0,0,1,106.79,47Z"/><path class="cls-2" d="M115.41,44.67v6.25A2.57,2.57,0,0,1,114.5,53a3.78,3.78,0,0,1-2.48.75,6.2,6.2,0,0,1-2.55-.43q-.21-.09-.15-.24l.22-.6a.19.19,0,0,1,.28-.14,6,6,0,0,0,2.17.38,2.52,2.52,0,0,0,1.65-.5,1.7,1.7,0,0,0,.62-1.4V50a2.1,2.1,0,0,1-1,1,3.18,3.18,0,0,1-1.49.35,3.14,3.14,0,0,1-2.31-.88,3.62,3.62,0,0,1-.88-2.64,3.75,3.75,0,0,1,.86-2.68,3,3,0,0,1,2.29-.89,3.26,3.26,0,0,1,1.51.36,2.14,2.14,0,0,1,1,.93v-.89a.21.21,0,0,1,.23-.22h.7C115.34,44.44,115.41,44.51,115.41,44.67Zm-1.17,3a2.56,2.56,0,0,0-.58-1.84,2.16,2.16,0,0,0-1.64-.61c-1.46,0-2.19.85-2.19,2.56s.73,2.54,2.19,2.54a2.05,2.05,0,0,0,1.63-.68A2.9,2.9,0,0,0,114.24,47.72Z"/><path class="cls-2" d="M127.93,44.69l-2.37,6.83a3.84,3.84,0,0,1-.89,1.67,2.24,2.24,0,0,1-1.56.48,3.18,3.18,0,0,1-1.07-.16c-.13,0-.19-.12-.17-.22l.17-.6a.22.22,0,0,1,.25-.16,4,4,0,0,0,.75.1,1.15,1.15,0,0,0,.76-.22.7.7,0,0,0,.27-.58,1.18,1.18,0,0,0-.1-.48l-2.6-6.67c-.07-.16,0-.24.16-.24h.75c.12,0,.2.07.24.23l1.41,3.85.82,2.25h0l.71-2.26,1.21-3.84a.25.25,0,0,1,.25-.22h.78C127.91,44.44,128,44.52,127.93,44.69Z"/><path class="cls-2" d="M132.53,52.15a3.42,3.42,0,0,1-2.64-1,4.09,4.09,0,0,1-1-2.92,4.08,4.08,0,0,1,1-2.91,3.9,3.9,0,0,1,5.28,0,4.12,4.12,0,0,1,1,2.91,4.13,4.13,0,0,1-1,2.92A3.45,3.45,0,0,1,132.53,52.15Zm0-1a2.2,2.2,0,0,0,1.77-.73,4.07,4.07,0,0,0,0-4.35,2.2,2.2,0,0,0-1.77-.73,2.17,2.17,0,0,0-1.77.73,4.07,4.07,0,0,0,0,4.35A2.17,2.17,0,0,0,132.53,51.11Z"/><path class="cls-2" d="M137.92,49.4V44.67a.2.2,0,0,1,.23-.23h.72c.15,0,.22.07.22.23v4.54c0,1.24.6,1.86,1.79,1.86a2.33,2.33,0,0,0,1.63-.57,2,2,0,0,0,.62-1.55V44.67c0-.16.08-.23.24-.23h.71c.15,0,.22.07.22.23v7.1c0,.15-.07.23-.22.23h-.71c-.16,0-.24-.07-.24-.22v-1a2.57,2.57,0,0,1-2.52,1.33,2.61,2.61,0,0,1-2-.73A2.91,2.91,0,0,1,137.92,49.4Z"/><path class="cls-2" d="M157.59,47v4.76c0,.15-.07.23-.22.23h-.73c-.14,0-.21-.08-.21-.23V47.18c0-1.21-.63-1.82-1.89-1.82a2.27,2.27,0,0,0-1.68.61,2.11,2.11,0,0,0-.61,1.56v4.25c0,.15-.08.22-.24.22h-.71a.2.2,0,0,1-.23-.23V42c0-.15.07-.22.23-.22H152c.16,0,.24.07.24.22v3.65a2.19,2.19,0,0,1,.9-.95,3.17,3.17,0,0,1,1.7-.41,2.68,2.68,0,0,1,2,.73A2.79,2.79,0,0,1,157.59,47Z"/><path class="cls-2" d="M163,52.15a3.42,3.42,0,0,1-2.64-1,4.13,4.13,0,0,1-1-2.92,4.12,4.12,0,0,1,1-2.91,3.9,3.9,0,0,1,5.28,0,4.08,4.08,0,0,1,1,2.91,4.09,4.09,0,0,1-1,2.92A3.45,3.45,0,0,1,163,52.15Zm0-1a2.2,2.2,0,0,0,1.77-.73,4.07,4.07,0,0,0,0-4.35A2.2,2.2,0,0,0,163,45.3a2.17,2.17,0,0,0-1.77.73,3.25,3.25,0,0,0-.62,2.17,3.26,3.26,0,0,0,.62,2.18A2.17,2.17,0,0,0,163,51.11Z"/><path class="cls-2" d="M174.67,47.3v4.47a.21.21,0,0,1-.24.23h-.71a.2.2,0,0,1-.23-.23V47.09c0-1.15-.55-1.73-1.63-1.73a2.08,2.08,0,0,0-1.54.57,2,2,0,0,0-.57,1.5v4.34a.21.21,0,0,1-.24.23h-.71a.21.21,0,0,1-.24-.23v-7.1c0-.16.08-.23.24-.23h.71c.16,0,.24.07.24.22v.94a2.08,2.08,0,0,1,.81-.93,2.78,2.78,0,0,1,1.58-.41,2.13,2.13,0,0,1,2.29,1.42,2.68,2.68,0,0,1,2.63-1.42,2.38,2.38,0,0,1,1.87.72,2.87,2.87,0,0,1,.65,2v4.82a.2.2,0,0,1-.22.23h-.72a.21.21,0,0,1-.23-.23V47.11A2,2,0,0,0,178,45.8a1.6,1.6,0,0,0-1.26-.44,2.09,2.09,0,0,0-1.52.55A1.83,1.83,0,0,0,174.67,47.3Z"/><path class="cls-2" d="M185.35,51.17a4.09,4.09,0,0,0,1.91-.47c.14-.08.24,0,.32.13l.22.54c0,.11,0,.2-.16.27a5.08,5.08,0,0,1-2.35.54,3.82,3.82,0,0,1-2.84-1.06,4,4,0,0,1-1-2.89,4.24,4.24,0,0,1,.93-2.93,3.28,3.28,0,0,1,2.56-1,3.13,3.13,0,0,1,2.44,1,3.69,3.69,0,0,1,.87,2.55v.73c0,.16-.08.24-.25.24h-5.39a2.52,2.52,0,0,0,.82,1.75A2.8,2.8,0,0,0,185.35,51.17Zm-.44-5.9c-1.46,0-2.24.83-2.33,2.5h4.5v-.08a2.61,2.61,0,0,0-.55-1.76A2,2,0,0,0,184.91,45.27Z"/></svg>