<svg id="Layer_1" data-name="Layer 1" xmlns="http://www.w3.org/2000/svg" viewBox="0 0 78 56"><defs><style>.cls-1{fill:#ef305e;}</style></defs><path class="cls-1" d="M42.21,15.31h-6a.32.32,0,1,0,0,.63h6a.32.32,0,0,0,0-.63Z"/><path class="cls-1" d="M38.92,1.86A26.64,26.64,0,1,0,65.61,28.59,26.68,26.68,0,0,0,38.92,1.86Zm-2.5,16.45c-.51,0-.55-.12-.6-1,0-.5.32-.3.54-.34.6-.12.65.23.57.67S37,18.37,36.42,18.31ZM40.51,43.1c-.51,0-1,0-1.52,0h0c-.49,0-1,0-1.46,0S37,43,37,42.63c0-.6,0-1.19,0-1.79a1.11,1.11,0,0,1,.69-1.12,2.85,2.85,0,0,1,2.16-.15A1.26,1.26,0,0,1,41,41c0,.54,0,1.08,0,1.62C41,43,40.85,43.11,40.51,43.1Zm-.23-12.73c0,1.05-.26,1.33-1.12,1.29-.67,0-.93-.29-.93-1v-.43c0-.39,0-.78.42-1a1.45,1.45,0,0,1,1.4.13C40.42,29.69,40.22,30.1,40.28,30.37Zm-.85-5.24c.63.07.84.3.84.95v.43c0,.38,0,.78-.41,1a1.46,1.46,0,0,1-1.4-.11c-.38-.25-.18-.66-.24-.93C38.22,25.35,38.53,25,39.43,25.13ZM40.14,17c.46,0,.78,0,.71.63s0,.69-.75.69-.78,0-.78-.65S39.32,17,40.14,17Zm-1.25,1.11c0,.15-.09.22-.24.21h-.59c-.18-.06-.55.16-.64-.12a3.25,3.25,0,0,1,0-1.08c0-.1.12-.11.22-.11H38C38.92,17,39.06,17.17,38.89,18.08Zm2.72.23c-.62-.06-.2-.5-.34-.68,0-.64.23-.81.82-.66.13,0,.18.09.17.22s0,.29,0,.43C42.18,18,42.22,18.37,41.61,18.31Zm16.87,26.8a.82.82,0,0,1-.87.33,95.46,95.46,0,0,0-11.46-1.16c-.34,0-.73.08-.63-.54a.54.54,0,0,0-.56-.61c-.39,0-.44-.18-.47-.48q-.33-3.32-.68-6.65-.63-6.13-1.27-12.26c-.15-1.41-.29-2.82-.43-4.22,0-.16-.07-.35.19-.34s.44-.24.47-.53.11-.86.17-1.29c0-.13,0-.3.15-.36a.26.26,0,0,0,.16-.36c-.07-.19-.24-.18-.41-.18H35.33c-.18,0-.42-.07-.5.19s.06.32.28.37.1.21.12.33c.06.47.13.93.18,1.4,0,.26.17.43.41.41.41,0,.38.19.35.47L34.22,37c-.21,1.89-.43,3.78-.64,5.67,0,.26-.06.42-.4.44a.62.62,0,0,0-.61.83c.07.36,0,.42-.36.44a95.2,95.2,0,0,0-10.36,1.18,1.51,1.51,0,0,0-.37.06c-.95.42-1.54,0-2.13-.76a25.67,25.67,0,0,1-5.82-14.54,23.73,23.73,0,0,1,2.14-12.17c3.78-7.84,9.79-13,18.47-14.73a24.62,24.62,0,0,1,15.79,2c8.37,4.09,13.25,10.81,14.42,20A24.74,24.74,0,0,1,58.48,45.11Z"/><path class="cls-1" d="M25,27.57a.56.56,0,1,0-.06,1.11.51.51,0,0,0,.57-.52A.53.53,0,0,0,25,27.57Z"/><path class="cls-1" d="M33.06,7c-.52-.61-.38-1.26.1-2-1.09.38-1.6,1.06-1.52,1.87a1.85,1.85,0,0,0,1.57,1.64A1.92,1.92,0,0,0,35.36,7.4,1.82,1.82,0,0,1,33.06,7Zm-.71.78a1.27,1.27,0,0,1,.09-1.95c0,1.3.58,1.9,1.91,2.1A1.49,1.49,0,0,1,32.35,7.82Z"/><path class="cls-1" d="M25,11.12A.84.84,0,0,0,25,12.79a.84.84,0,0,0,.86-.81A.85.85,0,0,0,25,11.12Zm0,1.31a.43.43,0,0,1-.48-.47.44.44,0,0,1,.51-.49.47.47,0,0,1,.47.51A.47.47,0,0,1,25,12.43Z"/><path class="cls-1" d="M52.72,11.77a.85.85,0,0,0-.83.83.82.82,0,0,0,.82.84.85.85,0,0,0,.84-.82A.88.88,0,0,0,52.72,11.77Zm.49.86a.46.46,0,0,1-.49.47.45.45,0,0,1-.48-.52c0-.3.19-.43.47-.47S53.22,12.32,53.21,12.63Z"/><polygon class="cls-1" points="18.25 24.35 18.03 23.89 17.8 24.35 17.29 24.43 17.66 24.79 17.57 25.29 18.03 25.05 18.48 25.29 18.39 24.79 18.76 24.43 18.25 24.35"/><polygon class="cls-1" points="47.39 19.84 47.15 19.36 46.92 19.84 46.38 19.91 46.77 20.29 46.68 20.82 47.15 20.57 47.63 20.82 47.54 20.29 47.92 19.91 47.39 19.84"/><polygon class="cls-1" points="51.55 30.45 51.33 30.02 51.12 30.45 50.64 30.52 50.99 30.85 50.91 31.33 51.33 31.1 51.76 31.33 51.68 30.85 52.02 30.52 51.55 30.45"/><rect class="cls-1" x="27.75" y="19.23" width="1.06" height="1.06" rx="0.07" transform="translate(-5.9 24.43) rotate(-42.73)"/><rect class="cls-1" x="46.09" y="8.78" width="1.06" height="1.06" rx="0.07" transform="translate(6.06 34.1) rotate(-42.73)"/><rect class="cls-1" x="56.9" y="24.72" width="1.06" height="1.06" rx="0.07" transform="translate(-1.89 45.66) rotate(-42.73)"/><rect class="cls-1" x="38.83" y="14.06" width="0.68" height="0.43" rx="0.13"/><path class="cls-1" d="M41.93,12a.76.76,0,0,0-.76-.76h-.66v-.9a.6.6,0,0,0-.6-.6h0V7.34a.27.27,0,0,0-.22-.26V7a.66.66,0,0,0-.48-.66V3.57H39V6.3a.67.67,0,0,0-.46.66v.13a.27.27,0,0,0-.18.25V9.77h.15a.59.59,0,0,0-.59.6v.9h-.39a1.09,1.09,0,0,0-1.1,1.09v2.88h5.49ZM40,14.9H38.44V13.73a.47.47,0,0,1,.47-.47h0V12.6h.57v.66h.06a.47.47,0,0,1,.46.47Z"/></svg>