<svg id="Layer_1" data-name="Layer 1" xmlns="http://www.w3.org/2000/svg" viewBox="0 0 120 74"><defs><style>.cls-1{fill:#50cd89;}.cls-2{fill:#fff;}</style></defs><path class="cls-1" d="M63.1,14.45H57.35a.31.31,0,0,0,0,.61H63.1a.31.31,0,1,0,0-.61Z"/><path class="cls-1" d="M60,1.57A25.53,25.53,0,1,0,85.53,27.18,25.56,25.56,0,0,0,60,1.57ZM57.56,17.33c-.49,0-.53-.12-.57-.95,0-.48.3-.28.51-.33.57-.11.62.23.55.65S58.1,17.38,57.56,17.33Zm3.92,23.75c-.49,0-1,0-1.46,0h0c-.47,0-.94,0-1.4,0s-.49-.07-.47-.45c0-.57,0-1.14,0-1.71a1.05,1.05,0,0,1,.66-1.07,2.71,2.71,0,0,1,2.07-.15,1.22,1.22,0,0,1,1,1.4c0,.52,0,1,0,1.56C61.94,41,61.8,41.1,61.48,41.08Zm-.23-12.19c0,1-.24,1.27-1.06,1.24-.65,0-.9-.29-.9-.93v-.42c0-.37,0-.75.41-.91A1.39,1.39,0,0,1,61,28C61.39,28.23,61.2,28.63,61.25,28.89Zm-.81-5c.61.06.8.28.81.9,0,.14,0,.28,0,.42,0,.37,0,.75-.4.91a1.36,1.36,0,0,1-1.34-.1c-.36-.24-.17-.63-.23-.89C59.28,24.08,59.58,23.78,60.44,23.87ZM61.12,16c.44,0,.75,0,.69.61s0,.66-.72.66-.75,0-.75-.62S60.34,16.07,61.12,16Zm-1.2,1.07c0,.15-.08.21-.23.2h-.56c-.18-.06-.53.15-.61-.12a3.23,3.23,0,0,1,0-1c0-.1.13-.1.21-.11h.37C60,16.05,60.09,16.23,59.92,17.11Zm2.61.22c-.6-.06-.19-.48-.32-.65,0-.62.21-.78.78-.63.13,0,.18.08.17.21s0,.27,0,.41C63.08,17,63.12,17.39,62.53,17.33ZM78.7,43a.77.77,0,0,1-.84.31,93.64,93.64,0,0,0-11-1.1c-.33,0-.7.07-.6-.52a.51.51,0,0,0-.54-.58c-.37,0-.42-.18-.45-.46-.21-2.13-.43-4.25-.65-6.38Q64,28.42,63.42,22.53l-.42-4c0-.16-.06-.34.19-.33s.42-.23.46-.5.09-.83.15-1.24c0-.13,0-.29.15-.35a.24.24,0,0,0,.15-.34c-.06-.19-.23-.18-.39-.18H56.52c-.18,0-.41-.06-.49.19s.06.31.27.36.1.2.12.31c.06.44.12.89.17,1.34,0,.25.16.41.39.4.39,0,.37.18.34.45q-.95,8.33-1.87,16.66c-.21,1.81-.42,3.62-.61,5.43,0,.25-.06.41-.38.42a.61.61,0,0,0-.6.8c.07.34,0,.4-.33.42a92,92,0,0,0-9.93,1.13,1.43,1.43,0,0,0-.36.06c-.91.4-1.47,0-2-.73a24.62,24.62,0,0,1-5.58-13.93A22.78,22.78,0,0,1,37.67,17.2c3.62-7.51,9.39-12.5,17.7-14.11A23.54,23.54,0,0,1,70.5,5c8,3.91,12.7,10.35,13.83,19.18A23.75,23.75,0,0,1,78.7,43Z"/><path class="cls-1" d="M46.61,26.2a.54.54,0,1,0,0,1.07.49.49,0,0,0,.54-.5A.51.51,0,0,0,46.61,26.2Z"/><path class="cls-1" d="M54.34,6.53c-.5-.59-.36-1.21.09-1.9-1,.37-1.53,1-1.46,1.8A1.79,1.79,0,0,0,54.48,8a1.84,1.84,0,0,0,2.06-1.13A1.74,1.74,0,0,1,54.34,6.53Zm-.68.74a1.21,1.21,0,0,1,.08-1.86c0,1.24.56,1.81,1.84,2A1.43,1.43,0,0,1,53.66,7.27Z"/><path class="cls-1" d="M46.64,10.44a.8.8,0,1,0,.76.82A.79.79,0,0,0,46.64,10.44Zm0,1.26a.47.47,0,1,1,0-.93.45.45,0,0,1,.45.49A.45.45,0,0,1,46.61,11.7Z"/><path class="cls-1" d="M73.18,11.06a.82.82,0,0,0-.8.8.79.79,0,0,0,.79.8.81.81,0,0,0,.81-.79A.85.85,0,0,0,73.18,11.06Zm.47.83a.43.43,0,0,1-.47.44.43.43,0,0,1-.47-.49c0-.29.19-.42.46-.46S73.66,11.58,73.65,11.89Z"/><polygon class="cls-1" points="40.15 23.12 39.93 22.68 39.71 23.12 39.23 23.19 39.58 23.54 39.5 24.02 39.93 23.79 40.37 24.02 40.28 23.54 40.63 23.19 40.15 23.12"/><polygon class="cls-1" points="68.07 18.79 67.84 18.33 67.61 18.79 67.11 18.87 67.47 19.23 67.39 19.73 67.84 19.49 68.3 19.73 68.21 19.23 68.58 18.87 68.07 18.79"/><polygon class="cls-1" points="72.05 28.96 71.85 28.55 71.64 28.96 71.19 29.03 71.52 29.35 71.44 29.8 71.85 29.59 72.25 29.8 72.18 29.35 72.51 29.03 72.05 28.96"/><rect class="cls-1" x="49.24" y="18.21" width="1.01" height="1.01" rx="0.07" transform="translate(0.51 38.72) rotate(-42.73)"/><rect class="cls-1" x="66.82" y="8.19" width="1.01" height="1.01" rx="0.07" transform="translate(11.97 47.99) rotate(-42.73)"/><rect class="cls-1" x="77.18" y="23.47" width="1.01" height="1.01" rx="0.07" transform="translate(4.35 59.07) rotate(-42.73)"/><rect class="cls-1" x="59.86" y="13.26" width="0.65" height="0.41" rx="0.13"/><path class="cls-1" d="M62.84,11.31a.73.73,0,0,0-.73-.73h-.63V9.72a.58.58,0,0,0-.58-.58h0V6.82a.25.25,0,0,0-.21-.25V6.45a.63.63,0,0,0-.46-.63V3.2H60V5.82a.63.63,0,0,0-.44.63v.13a.25.25,0,0,0-.17.24V9.14h.14a.58.58,0,0,0-.57.58v.86h-.37a1,1,0,0,0-1.05,1.05v2.75h5.26ZM61,14.06h-1.5V12.94a.45.45,0,0,1,.45-.45h0v-.64h.55v.64h0a.45.45,0,0,1,.45.45Z"/><path class="cls-2" d="M23.16,61.84h-6V54.06H19v6.1h4.15Z"/><path class="cls-2" d="M24.27,54.45V53h1.81v1.43Zm0,7.39V55.35h1.81v6.49Z"/><path class="cls-2" d="M31,61.84h-2.4l-1.49-1.49v-3.5l1.49-1.5h4.74V63l-1.49,1.49H27.77V62.75H31l.52-.52V57H29.46l-.52.52v2.08l.52.52H31Z"/><path class="cls-2" d="M38.67,61.84V57.56L38.15,57H36.47l-.26.26v4.54H34.39V52.76h1.82v2.46l-.5.5L36,56l.65-.65H39l1.49,1.5v5Z"/><path class="cls-2" d="M45.16,61.84H43l-1.49-1.49V53h1.81v2.53H45v1.69H43.34v2.4l.52.52h1.3Z"/><path class="cls-2" d="M50.48,61.84V57.56L50,57H48.27L48,57.3v4.54H46.2V52.76H48v2.46l-.5.5.3.28.65-.65h2.34l1.49,1.5v5Z"/><path class="cls-2" d="M53.34,60.35v-3.5l1.49-1.5h3.5l1.49,1.5v3.5l-1.49,1.49h-3.5Zm1.81-2.79v2.08l.52.52h1.82l.52-.52V57.56L57.49,57H55.67Z"/><path class="cls-2" d="M62.68,55.35v4.29l.52.52h1.69l.26-.26V55.35H67v6.49H65.47l-.13-.65-.65.65H62.36l-1.5-1.49v-5Z"/><path class="cls-2" d="M68,60.16h4.15l.39-.39-.39-.39H69.49L68,57.89v-1l1.49-1.5H74.1V57H70.34l-.39.39.39.39H73l1.49,1.49v1L73,61.84H68Z"/><path class="cls-2" d="M78,58H80.2v-.39L79.68,57H77.86l-.52.52v2.08l.52.52h3.51v1.68H77l-1.49-1.49v-3.5L77,55.35h3.5l1.5,1.5v2.66H78Z"/><path class="cls-2" d="M100.55,61.38H96.42l-.68-2.49H88.67L88,61.38H83.83l4.7-17.59h7.33ZM89.7,55.08h5l-2-7.48h-1Z"/><path class="cls-2" d="M109.35,47.16h-1.47V58h1.47v3.37h-7V58h1.47V47.16h-1.47V43.79h7Z"/><path class="cls-2" d="M18.45,68.41h1.76c.1,0,.15,0,.15.13v2.65a.33.33,0,0,1-.16.28,3.46,3.46,0,0,1-1.79.41c-1.88,0-2.82-1-2.82-3s.95-3,2.86-3a3.16,3.16,0,0,1,1.58.36c.09,0,.13.09.11.16l-.14.36a.14.14,0,0,1-.19.07,2.9,2.9,0,0,0-1.31-.29,2.15,2.15,0,0,0-1.66.57,2.61,2.61,0,0,0-.52,1.78,2.64,2.64,0,0,0,.52,1.79,2.06,2.06,0,0,0,1.61.57A2.74,2.74,0,0,0,19.66,71V69H18.45c-.1,0-.15,0-.15-.13v-.37C18.3,68.45,18.35,68.41,18.45,68.41Z"/><path class="cls-2" d="M21.57,70.31v-2.7a.12.12,0,0,1,.13-.13h.41c.09,0,.13,0,.13.13V70.2c0,.71.34,1.06,1,1.06a1.32,1.32,0,0,0,.93-.33,1.12,1.12,0,0,0,.36-.88V67.61c0-.09,0-.13.13-.13h.41c.08,0,.12,0,.12.13v4c0,.09,0,.13-.12.13h-.41c-.09,0-.13,0-.13-.12v-.55a1.51,1.51,0,0,1-1.45.76A1.47,1.47,0,0,1,22,71.46,1.66,1.66,0,0,1,21.57,70.31Z"/><path class="cls-2" d="M27.21,66.11v.67c0,.09,0,.14-.12.14h-.42c-.08,0-.12,0-.12-.14v-.67c0-.09,0-.13.12-.13h.42C27.17,66,27.21,66,27.21,66.11Zm0,1.5v4c0,.09,0,.13-.12.13h-.42c-.08,0-.12,0-.12-.13v-4c0-.09,0-.13.12-.13h.42C27.17,67.48,27.21,67.52,27.21,67.61Z"/><path class="cls-2" d="M31.78,71.67v-.6a1.51,1.51,0,0,1-1.54.81,1.8,1.8,0,0,1-1.42-.58,3,3,0,0,1,0-3.35,1.83,1.83,0,0,1,1.42-.57,2,2,0,0,1,.94.21,1.29,1.29,0,0,1,.59.61V66.07a.12.12,0,0,1,.13-.13h.41a.12.12,0,0,1,.13.13v5.59c0,.09,0,.13-.13.13H31.9A.11.11,0,0,1,31.78,71.67Zm-.37-.81a1.86,1.86,0,0,0,.37-1.23,1.89,1.89,0,0,0-.37-1.24A1.33,1.33,0,0,0,30.36,68a1.29,1.29,0,0,0-1,.39,2.52,2.52,0,0,0,0,2.53,1.29,1.29,0,0,0,1,.39A1.33,1.33,0,0,0,31.41,70.86Z"/><path class="cls-2" d="M34.47,66.11v.67c0,.09,0,.14-.13.14h-.41c-.09,0-.13,0-.13-.14v-.67c0-.09,0-.13.13-.13h.41C34.43,66,34.47,66,34.47,66.11Zm0,1.5v4c0,.09,0,.13-.13.13h-.41c-.09,0-.13,0-.13-.13v-4c0-.09,0-.13.13-.13h.41C34.43,67.48,34.47,67.52,34.47,67.61Z"/><path class="cls-2" d="M39.48,68.94v2.72c0,.09,0,.13-.14.13h-.41c-.09,0-.13,0-.13-.13V69a.93.93,0,0,0-1.06-1,1.26,1.26,0,0,0-.94.34,1.18,1.18,0,0,0-.35.89v2.43c0,.09,0,.13-.13.13h-.41a.12.12,0,0,1-.13-.13v-4a.12.12,0,0,1,.13-.13h.4c.09,0,.13,0,.13.12v.54a1.82,1.82,0,0,1,2.63-.35A1.62,1.62,0,0,1,39.48,68.94Z"/><path class="cls-2" d="M44.39,67.61v3.57a1.47,1.47,0,0,1-.52,1.2,2.14,2.14,0,0,1-1.41.43A3.48,3.48,0,0,1,41,72.56c-.08,0-.11-.08-.08-.13l.12-.35c0-.08.08-.11.16-.08a3.47,3.47,0,0,0,1.24.22,1.43,1.43,0,0,0,.94-.29,1,1,0,0,0,.35-.8v-.47a1.17,1.17,0,0,1-.54.56,1.81,1.81,0,0,1-.85.2,1.78,1.78,0,0,1-1.31-.5,2,2,0,0,1-.5-1.51A2.16,2.16,0,0,1,41,67.88a1.76,1.76,0,0,1,1.31-.5,1.81,1.81,0,0,1,.86.2,1.18,1.18,0,0,1,.55.53V67.6a.12.12,0,0,1,.14-.12h.4C44.35,67.48,44.39,67.52,44.39,67.61Zm-.67,1.74a1.47,1.47,0,0,0-.33-1,1.23,1.23,0,0,0-.93-.35c-.84,0-1.25.49-1.25,1.46s.41,1.45,1.25,1.45a1.18,1.18,0,0,0,.93-.39A1.68,1.68,0,0,0,43.72,69.35Z"/><path class="cls-2" d="M51.53,67.62l-1.35,3.9a2.2,2.2,0,0,1-.51,1,1.28,1.28,0,0,1-.89.27,1.75,1.75,0,0,1-.61-.09c-.07,0-.11-.07-.1-.12l.1-.35a.14.14,0,0,1,.14-.09,2.48,2.48,0,0,0,.43.06.72.72,0,0,0,.44-.12.43.43,0,0,0,.15-.34.66.66,0,0,0-.06-.27l-1.48-3.8c0-.1,0-.14.09-.14h.43c.06,0,.11,0,.14.13l.8,2.2.47,1.28h0l.4-1.28.69-2.2c0-.08.07-.12.14-.12h.45C51.52,67.48,51.56,67.52,51.53,67.62Z"/><path class="cls-2" d="M54.15,71.88a2,2,0,0,1-1.5-.59,2.33,2.33,0,0,1-.55-1.66A2.35,2.35,0,0,1,52.65,68a2,2,0,0,1,1.5-.58,2,2,0,0,1,1.51.58,2.35,2.35,0,0,1,.55,1.67,2.33,2.33,0,0,1-.55,1.66A2,2,0,0,1,54.15,71.88Zm0-.6a1.24,1.24,0,0,0,1-.41,1.85,1.85,0,0,0,.36-1.24,1.88,1.88,0,0,0-.36-1.25,1.27,1.27,0,0,0-1-.41,1.29,1.29,0,0,0-1,.41,1.94,1.94,0,0,0-.35,1.25,1.91,1.91,0,0,0,.35,1.24A1.26,1.26,0,0,0,54.15,71.28Z"/><path class="cls-2" d="M57.23,70.31v-2.7c0-.09,0-.13.13-.13h.41a.12.12,0,0,1,.13.13V70.2c0,.71.34,1.06,1,1.06a1.32,1.32,0,0,0,.93-.33,1.14,1.14,0,0,0,.35-.88V67.61c0-.09,0-.13.14-.13h.41c.08,0,.12,0,.12.13v4c0,.09,0,.13-.12.13h-.41c-.09,0-.14,0-.14-.12v-.55a1.76,1.76,0,0,1-2.59.34A1.66,1.66,0,0,1,57.23,70.31Z"/><path class="cls-2" d="M68.45,68.94v2.72c0,.09,0,.13-.12.13h-.42a.12.12,0,0,1-.13-.13V69a.93.93,0,0,0-1.07-1,1.32,1.32,0,0,0-1,.35,1.21,1.21,0,0,0-.35.89v2.43c0,.08,0,.12-.13.12h-.41c-.09,0-.13,0-.13-.13V66.07a.12.12,0,0,1,.13-.13h.41a.12.12,0,0,1,.13.13v2.08a1.44,1.44,0,0,1,.51-.54,1.8,1.8,0,0,1,1-.23,1.56,1.56,0,0,1,1.16.41A1.58,1.58,0,0,1,68.45,68.94Z"/><path class="cls-2" d="M71.56,71.88a2,2,0,0,1-1.51-.59,2.33,2.33,0,0,1-.55-1.66A2.35,2.35,0,0,1,70.05,68a2.24,2.24,0,0,1,3,0,2.36,2.36,0,0,1,.56,1.67,2.33,2.33,0,0,1-.56,1.66A2,2,0,0,1,71.56,71.88Zm0-.6a1.26,1.26,0,0,0,1-.41,1.85,1.85,0,0,0,.36-1.24,1.88,1.88,0,0,0-.36-1.25,1.29,1.29,0,0,0-1-.41,1.26,1.26,0,0,0-1,.41,1.88,1.88,0,0,0-.36,1.25,1.85,1.85,0,0,0,.36,1.24A1.23,1.23,0,0,0,71.56,71.28Z"/><path class="cls-2" d="M78.19,69.11v2.55c0,.09,0,.13-.13.13h-.41c-.09,0-.13,0-.13-.13V69q0-1-.93-1a1.17,1.17,0,0,0-.88.33,1.13,1.13,0,0,0-.33.85v2.48c0,.09,0,.13-.13.13h-.41c-.09,0-.13,0-.13-.13v-4c0-.09,0-.13.13-.13h.41c.09,0,.13,0,.13.12v.54a1.29,1.29,0,0,1,.47-.53,1.54,1.54,0,0,1,.9-.23,1.23,1.23,0,0,1,1.31.8,1.53,1.53,0,0,1,1.5-.8,1.32,1.32,0,0,1,1.06.41A1.59,1.59,0,0,1,81,68.91v2.75c0,.09,0,.13-.13.13h-.4c-.09,0-.14,0-.14-.13V69a1.11,1.11,0,0,0-.21-.74.92.92,0,0,0-.72-.26,1.21,1.21,0,0,0-.87.32A1,1,0,0,0,78.19,69.11Z"/><path class="cls-2" d="M84.28,71.32a2.29,2.29,0,0,0,1.09-.27c.08,0,.14,0,.19.08l.12.3q0,.1-.09.15a2.84,2.84,0,0,1-1.34.31,2.17,2.17,0,0,1-1.62-.6A2.27,2.27,0,0,1,82,69.64,2.42,2.42,0,0,1,82.57,68,1.85,1.85,0,0,1,84,67.38a1.78,1.78,0,0,1,1.4.55,2.09,2.09,0,0,1,.49,1.45v.42c0,.09,0,.13-.14.13H82.71a1.37,1.37,0,0,0,.46,1A1.6,1.6,0,0,0,84.28,71.32ZM84,68c-.83,0-1.27.48-1.32,1.43h2.56v0a1.5,1.5,0,0,0-.31-1A1.16,1.16,0,0,0,84,68Z"/></svg>