<svg id="Layer_1" data-name="Layer 1" xmlns="http://www.w3.org/2000/svg" viewBox="0 0 78 56"><defs><style>.cls-1{fill:#ef305e;}</style></defs><path class="cls-1" d="M42.24,14.81h-6a.31.31,0,0,0-.32.31.32.32,0,0,0,.32.32h6a.32.32,0,0,0,.31-.32A.31.31,0,0,0,42.24,14.81Z"/><path class="cls-1" d="M39,1.36A26.64,26.64,0,1,0,65.64,28.09,26.68,26.68,0,0,0,39,1.36ZM36.45,17.8c-.51-.05-.55-.11-.6-1,0-.51.32-.3.54-.34.6-.12.65.23.57.67S37,17.86,36.45,17.8Zm4.09,24.79c-.5,0-1,0-1.52,0h0c-.49,0-1,0-1.46,0s-.52-.08-.49-.48c0-.59,0-1.19,0-1.78a1.1,1.1,0,0,1,.69-1.12,2.85,2.85,0,0,1,2.16-.15A1.25,1.25,0,0,1,41,40.52c0,.55,0,1.09,0,1.63C41,42.52,40.88,42.61,40.54,42.59Zm-.23-12.72c0,1.05-.26,1.33-1.12,1.29-.67,0-.93-.29-.93-1v-.43c0-.39,0-.78.42-1a1.45,1.45,0,0,1,1.4.12C40.45,29.18,40.25,29.6,40.31,29.87Zm-.85-5.24c.63.06.84.29.84.94V26c0,.39,0,.79-.41,1a1.48,1.48,0,0,1-1.4-.1c-.38-.26-.18-.67-.24-.93C38.25,24.85,38.56,24.54,39.46,24.63Zm.71-8.16c.46,0,.78,0,.71.62s0,.7-.74.7-.79,0-.79-.65S39.35,16.49,40.17,16.47Zm-1.25,1.1c0,.16-.09.22-.24.22h-.59c-.18-.07-.55.16-.64-.13a3.25,3.25,0,0,1,0-1.08c0-.1.13-.1.22-.1H38C39,16.47,39.09,16.66,38.92,17.57Zm2.72.24c-.62-.07-.2-.51-.34-.68,0-.65.23-.81.82-.66.13,0,.19.09.17.22s0,.29,0,.43C42.21,17.48,42.25,17.86,41.64,17.81ZM58.51,44.6a.79.79,0,0,1-.87.33,97.54,97.54,0,0,0-11.46-1.15c-.34,0-.73.07-.63-.54a.54.54,0,0,0-.56-.61c-.39,0-.44-.19-.47-.48-.22-2.22-.45-4.43-.68-6.65q-.63-6.13-1.27-12.27c-.15-1.4-.29-2.81-.43-4.21,0-.17-.07-.36.19-.34s.44-.25.47-.53.11-.86.17-1.29c0-.14,0-.3.15-.37a.25.25,0,0,0,.16-.35c-.07-.2-.24-.19-.41-.19H35.36c-.18,0-.42-.07-.5.2s.06.32.28.37.1.21.12.33c.07.46.13.93.18,1.4,0,.26.17.42.41.41.41,0,.38.19.35.47l-2,17.39c-.21,1.88-.43,3.77-.64,5.66,0,.26-.06.43-.4.44a.62.62,0,0,0-.61.83c.07.37,0,.43-.35.45a92.7,92.7,0,0,0-10.37,1.18,1.51,1.51,0,0,0-.37.06c-1,.41-1.54,0-2.13-.76a25.7,25.7,0,0,1-5.82-14.55A23.75,23.75,0,0,1,15.7,17.67c3.78-7.84,9.79-13,18.47-14.73A24.62,24.62,0,0,1,50,5c8.37,4.08,13.25,10.8,14.42,20A24.71,24.71,0,0,1,58.51,44.6Z"/><path class="cls-1" d="M25,27.07a.51.51,0,0,0-.6.5.56.56,0,1,0,1.11.09A.51.51,0,0,0,25,27.07Z"/><path class="cls-1" d="M33.09,6.54a1.5,1.5,0,0,1,.1-2c-1.08.38-1.6,1.05-1.52,1.87a1.86,1.86,0,0,0,1.57,1.64,1.92,1.92,0,0,0,2.15-1.18A1.83,1.83,0,0,1,33.09,6.54Zm-.7.77a1.25,1.25,0,0,1,.08-1.94c0,1.3.58,1.89,1.91,2.09A1.46,1.46,0,0,1,32.39,7.31Z"/><path class="cls-1" d="M25.06,10.61a.84.84,0,1,0,.8.87A.84.84,0,0,0,25.06,10.61Zm0,1.32a.43.43,0,0,1-.48-.47.45.45,0,0,1,.51-.5.48.48,0,0,1,.47.51A.47.47,0,0,1,25,11.93Z"/><path class="cls-1" d="M52.75,11.27a.84.84,0,0,0-.83.83.83.83,0,0,0,.82.84.84.84,0,0,0,0-1.67Zm.49.86a.45.45,0,0,1-.49.46.44.44,0,0,1-.48-.51c0-.31.19-.44.47-.48S53.25,11.81,53.24,12.13Z"/><polygon class="cls-1" points="18.29 23.85 18.06 23.39 17.83 23.85 17.32 23.92 17.69 24.28 17.6 24.79 18.06 24.55 18.51 24.79 18.43 24.28 18.79 23.92 18.29 23.85"/><polygon class="cls-1" points="47.42 19.33 47.18 18.85 46.95 19.33 46.41 19.41 46.8 19.79 46.71 20.32 47.18 20.07 47.66 20.32 47.57 19.79 47.95 19.41 47.42 19.33"/><polygon class="cls-1" points="51.58 29.94 51.36 29.51 51.15 29.94 50.67 30.01 51.02 30.35 50.94 30.82 51.36 30.6 51.79 30.82 51.71 30.35 52.05 30.01 51.58 29.94"/><rect class="cls-1" x="27.78" y="18.72" width="1.06" height="1.06" rx="0.07" transform="translate(-5.55 24.31) rotate(-42.73)"/><rect class="cls-1" x="46.12" y="8.27" width="1.06" height="1.06" rx="0.07" transform="translate(6.41 33.99) rotate(-42.73)"/><rect class="cls-1" x="56.93" y="24.21" width="1.06" height="1.06" rx="0.07" transform="translate(-1.54 45.55) rotate(-42.73)"/><rect class="cls-1" x="38.86" y="13.56" width="0.68" height="0.43" rx="0.13"/><path class="cls-1" d="M42,11.53a.76.76,0,0,0-.76-.76h-.66V9.86a.6.6,0,0,0-.6-.6h0V6.84a.27.27,0,0,0-.22-.26V6.45a.64.64,0,0,0-.48-.65V3.06h-.21V5.8a.65.65,0,0,0-.47.65v.14a.26.26,0,0,0-.18.25V9.26h.15a.59.59,0,0,0-.59.6v.91h-.39a1.09,1.09,0,0,0-1.1,1.09v2.87H42ZM40,14.4H38.47V13.23a.47.47,0,0,1,.47-.47h0v-.67h.57v.67h.06a.47.47,0,0,1,.47.47Z"/></svg>