<svg id="Layer_1" data-name="Layer 1" xmlns="http://www.w3.org/2000/svg" viewBox="0 0 175 34"><defs><style>.cls-1{fill:#fff;}.cls-2{fill:#0094ff;}</style></defs><path class="cls-1" d="M61.41,19.54H55.2V11.45h1.89v6.34h4.32Z"/><path class="cls-1" d="M62.55,11.86V10.37h1.89v1.49Zm0,7.68V12.8h1.89v6.74Z"/><path class="cls-1" d="M69.57,19.54h-2.5L65.52,18V14.35l1.55-1.55H72v7.89l-1.55,1.55H66.2V20.49h3.37l.54-.54v-5.4H68l-.54.54v2.16l.54.54h1.62Z"/><path class="cls-1" d="M77.52,19.54V15.09L77,14.55H75.23l-.27.27v4.72H73.07V10.1H75v2.57l-.51.51.31.3.67-.68h2.43l1.55,1.55v5.19Z"/><path class="cls-1" d="M84.27,19.54H82L80.49,18V10.37h1.89V13h1.75v1.76H82.38v2.49l.54.54h1.35Z"/><path class="cls-1" d="M89.8,19.54V15.09l-.54-.54H87.5l-.26.27v4.72H85.35V10.1h1.89v2.57l-.52.51.31.3.68-.68h2.42l1.56,1.55v5.19Z"/><path class="cls-1" d="M92.76,18V14.35l1.56-1.55H98l1.55,1.55V18L98,19.54H94.32Zm1.89-2.9v2.16l.54.54h1.89l.54-.54V15.09l-.54-.54H95.19Z"/><path class="cls-1" d="M102.48,12.8v4.45l.54.54h1.75l.27-.27V12.8h1.89v6.74h-1.55l-.14-.67-.67.67h-2.43L100.59,18V12.8Z"/><path class="cls-1" d="M108,17.79h4.31l.41-.4-.41-.41h-2.76L108,15.43V14.35l1.55-1.55h4.78v1.75h-3.91L110,15l.4.4h2.77l1.55,1.55V18l-1.55,1.55H108Z"/><path class="cls-1" d="M118.39,15.5h2.29v-.41l-.54-.54h-1.88l-.54.54v2.16l.54.54h3.64v1.75h-4.52L115.83,18V14.35l1.55-1.55H121l1.55,1.55v2.77h-4.18Z"/><path class="cls-1" d="M141.83,19.07h-4.29l-.7-2.59h-7.35l-.7,2.59h-4.33L129.34.78H137Zm-11.27-6.56h5.21L133.7,4.74h-1.07Z"/><path class="cls-1" d="M151,4.28h-1.53V15.56H151v3.51h-7.32V15.56h1.53V4.28h-1.53V.78H151Z"/><path class="cls-1" d="M56.51,26.37h1.83c.1,0,.15,0,.15.14v2.75a.34.34,0,0,1-.17.29,3.56,3.56,0,0,1-1.86.42q-2.93,0-2.92-3.13t3-3.13a3.29,3.29,0,0,1,1.64.37c.1,0,.14.1.11.17l-.14.37a.14.14,0,0,1-.2.08,3,3,0,0,0-1.36-.31,2.2,2.2,0,0,0-1.72.6,2.67,2.67,0,0,0-.54,1.85,2.67,2.67,0,0,0,.54,1.85,2.11,2.11,0,0,0,1.67.6A2.72,2.72,0,0,0,57.76,29V27H56.51c-.11,0-.16-.05-.16-.14v-.38C56.35,26.41,56.4,26.37,56.51,26.37Z"/><path class="cls-1" d="M59.75,28.34v-2.8a.12.12,0,0,1,.14-.14h.43c.08,0,.13,0,.13.14v2.69c0,.73.35,1.1,1.06,1.1a1.36,1.36,0,0,0,1-.34,1.16,1.16,0,0,0,.37-.92V25.54A.12.12,0,0,1,63,25.4h.43c.08,0,.13,0,.13.14v4.2c0,.1,0,.14-.13.14H63c-.09,0-.14,0-.14-.13v-.57a1.84,1.84,0,0,1-2.69.36A1.69,1.69,0,0,1,59.75,28.34Z"/><path class="cls-1" d="M65.62,24v.7a.12.12,0,0,1-.13.14h-.44a.12.12,0,0,1-.13-.14V24a.12.12,0,0,1,.13-.14h.44A.12.12,0,0,1,65.62,24Zm0,1.56v4.2c0,.1-.05.14-.13.14h-.44c-.08,0-.13,0-.13-.14v-4.2c0-.1,0-.14.13-.14h.44C65.57,25.4,65.62,25.44,65.62,25.54Z"/><path class="cls-1" d="M70.36,29.75v-.62a1.56,1.56,0,0,1-1.6.84,1.89,1.89,0,0,1-1.47-.59,2.58,2.58,0,0,1-.53-1.75,2.53,2.53,0,0,1,.53-1.74,1.86,1.86,0,0,1,1.47-.6,2.06,2.06,0,0,1,1,.23,1.28,1.28,0,0,1,.61.63V23.94c0-.09.05-.13.14-.13h.42c.1,0,.14,0,.14.13v5.8c0,.1,0,.14-.14.14h-.42C70.4,29.88,70.36,29.84,70.36,29.75ZM70,28.91a2.3,2.3,0,0,0,0-2.56,1.56,1.56,0,0,0-2.14,0,2,2,0,0,0-.35,1.31,2,2,0,0,0,.35,1.31,1.53,1.53,0,0,0,2.14,0Z"/><path class="cls-1" d="M73.16,24v.7a.12.12,0,0,1-.13.14h-.44a.12.12,0,0,1-.13-.14V24a.12.12,0,0,1,.13-.14H73A.12.12,0,0,1,73.16,24Zm0,1.56v4.2c0,.1,0,.14-.13.14h-.44c-.08,0-.13,0-.13-.14v-4.2c0-.1.05-.14.13-.14H73C73.11,25.4,73.16,25.44,73.16,25.54Z"/><path class="cls-1" d="M78.36,26.92v2.82a.12.12,0,0,1-.14.14H77.8c-.1,0-.14,0-.14-.14V27a1,1,0,0,0-1.1-1.08,1.35,1.35,0,0,0-1,.35,1.27,1.27,0,0,0-.36.94v2.51a.12.12,0,0,1-.14.14h-.43c-.08,0-.13,0-.13-.14v-4.2c0-.1,0-.14.13-.14h.42c.09,0,.14,0,.14.13v.56A1.86,1.86,0,0,1,78,25.73,1.67,1.67,0,0,1,78.36,26.92Z"/><path class="cls-1" d="M83.47,25.54v3.7a1.52,1.52,0,0,1-.54,1.25,2.23,2.23,0,0,1-1.47.45,3.74,3.74,0,0,1-1.52-.26c-.08,0-.11-.08-.08-.14l.13-.35c0-.09.08-.12.16-.09a3.49,3.49,0,0,0,1.29.23,1.49,1.49,0,0,0,1-.3,1,1,0,0,0,.36-.83v-.49a1.21,1.21,0,0,1-.56.58,1.81,1.81,0,0,1-.88.2A1.84,1.84,0,0,1,80,29a2.08,2.08,0,0,1-.52-1.56A2.2,2.2,0,0,1,80,25.82a1.8,1.8,0,0,1,1.35-.53,2,2,0,0,1,.9.22,1.22,1.22,0,0,1,.57.55v-.53a.13.13,0,0,1,.14-.13h.42C83.43,25.4,83.47,25.44,83.47,25.54Zm-.69,1.81a1.54,1.54,0,0,0-.35-1.1,1.28,1.28,0,0,0-1-.36c-.87,0-1.3.51-1.3,1.52s.43,1.5,1.3,1.5a1.22,1.22,0,0,0,1-.4A1.75,1.75,0,0,0,82.78,27.35Z"/><path class="cls-1" d="M90.89,25.55,89.48,29.6a2.26,2.26,0,0,1-.52,1,1.34,1.34,0,0,1-.93.28,1.83,1.83,0,0,1-.63-.09c-.08,0-.12-.08-.1-.13l.1-.36a.12.12,0,0,1,.15-.09,2.56,2.56,0,0,0,.44.06.73.73,0,0,0,.45-.13.43.43,0,0,0,.16-.35.79.79,0,0,0-.06-.29L87,25.55q-.06-.15.09-.15h.45c.07,0,.12,0,.14.14l.84,2.28L89,29.15h0l.42-1.34.71-2.28c0-.09.08-.13.15-.13h.46C90.88,25.4,90.92,25.45,90.89,25.55Z"/><path class="cls-1" d="M93.62,30a2,2,0,0,1-1.57-.61,2.44,2.44,0,0,1-.57-1.73,2.41,2.41,0,0,1,.57-1.72,2,2,0,0,1,1.57-.62,2.06,2.06,0,0,1,1.56.62,2.41,2.41,0,0,1,.57,1.72,2.44,2.44,0,0,1-.57,1.73A2,2,0,0,1,93.62,30Zm0-.61a1.28,1.28,0,0,0,1-.44,2.38,2.38,0,0,0,0-2.58,1.27,1.27,0,0,0-1-.43,1.32,1.32,0,0,0-1.06.43,2,2,0,0,0-.36,1.29,2,2,0,0,0,.36,1.29A1.32,1.32,0,0,0,93.62,29.36Z"/><path class="cls-1" d="M96.81,28.34v-2.8A.12.12,0,0,1,97,25.4h.42c.09,0,.13,0,.13.14v2.69a1,1,0,0,0,1.07,1.1,1.36,1.36,0,0,0,1-.34,1.16,1.16,0,0,0,.37-.92V25.54a.12.12,0,0,1,.14-.14h.42c.09,0,.13,0,.13.14v4.2c0,.1,0,.14-.13.14H100c-.09,0-.14,0-.14-.13v-.57a1.52,1.52,0,0,1-1.5.79,1.56,1.56,0,0,1-1.2-.43A1.73,1.73,0,0,1,96.81,28.34Z"/><path class="cls-1" d="M108.47,26.92v2.82c0,.1,0,.14-.13.14h-.43c-.09,0-.13,0-.13-.14V27a1,1,0,0,0-1.12-1.09,1.34,1.34,0,0,0-1,.37,1.26,1.26,0,0,0-.37.92v2.52c0,.09,0,.13-.13.13h-.43a.12.12,0,0,1-.14-.14v-5.8c0-.09.05-.13.14-.13h.43c.09,0,.13,0,.13.13V26.1a1.37,1.37,0,0,1,.54-.56,1.86,1.86,0,0,1,1-.25,1.6,1.6,0,0,1,1.21.44A1.63,1.63,0,0,1,108.47,26.92Z"/><path class="cls-1" d="M111.7,30a2,2,0,0,1-1.56-.61,2.44,2.44,0,0,1-.58-1.73,2.42,2.42,0,0,1,.58-1.72,2,2,0,0,1,1.56-.62,2.06,2.06,0,0,1,1.57.62,2.41,2.41,0,0,1,.57,1.72,2.44,2.44,0,0,1-.57,1.73A2.06,2.06,0,0,1,111.7,30Zm0-.61a1.32,1.32,0,0,0,1-.44,1.93,1.93,0,0,0,.37-1.29,1.93,1.93,0,0,0-.37-1.29,1.5,1.5,0,0,0-2.1,0,2.43,2.43,0,0,0,0,2.58A1.32,1.32,0,0,0,111.7,29.36Z"/><path class="cls-1" d="M118.6,27.1v2.64a.12.12,0,0,1-.14.14H118a.12.12,0,0,1-.14-.14V27c0-.68-.32-1-1-1a1.29,1.29,0,0,0-.92.34,1.22,1.22,0,0,0-.33.89v2.57a.12.12,0,0,1-.14.14h-.43c-.09,0-.13,0-.13-.14v-4.2c0-.1,0-.14.13-.14h.43c.09,0,.14,0,.14.13v.56a1.24,1.24,0,0,1,.48-.55,1.66,1.66,0,0,1,.94-.25,1.27,1.27,0,0,1,1.36.84,1.58,1.58,0,0,1,1.56-.84,1.41,1.41,0,0,1,1.1.43,1.68,1.68,0,0,1,.38,1.17v2.85c0,.1,0,.14-.13.14H121a.12.12,0,0,1-.14-.14V27a1.14,1.14,0,0,0-.22-.77.93.93,0,0,0-.75-.27,1.25,1.25,0,0,0-.9.33A1.1,1.1,0,0,0,118.6,27.1Z"/><path class="cls-1" d="M124.92,29.39a2.35,2.35,0,0,0,1.14-.28c.08,0,.14,0,.19.08l.13.32c0,.06,0,.12-.1.16a3,3,0,0,1-1.39.32,2.24,2.24,0,0,1-1.68-.63,2.34,2.34,0,0,1-.61-1.71,2.51,2.51,0,0,1,.55-1.74,1.93,1.93,0,0,1,1.51-.62,1.88,1.88,0,0,1,1.46.58,2.19,2.19,0,0,1,.51,1.51v.43c0,.1,0,.14-.15.14h-3.19a1.48,1.48,0,0,0,.48,1A1.65,1.65,0,0,0,124.92,29.39Zm-.26-3.5c-.86,0-1.32.5-1.37,1.48H126v0a1.57,1.57,0,0,0-.32-1A1.19,1.19,0,0,0,124.66,25.89Z"/><path class="cls-2" d="M27.65,10.35H24.16a.19.19,0,0,0-.19.18.2.2,0,0,0,.19.19h3.49a.19.19,0,0,0,.19-.19A.18.18,0,0,0,27.65,10.35Z"/><path class="cls-2" d="M25.74,2.52A15.52,15.52,0,1,0,41.28,18.09,15.53,15.53,0,0,0,25.74,2.52ZM24.29,12.1c-.3,0-.33-.07-.35-.58,0-.29.18-.17.31-.2.35-.07.38.14.33.39S24.61,12.13,24.29,12.1Zm2.37,14.43c-.29,0-.58,0-.88,0h0c-.28,0-.57,0-.85,0s-.3-.05-.29-.28a9,9,0,0,0,0-1,.65.65,0,0,1,.41-.65,1.65,1.65,0,0,1,1.25-.09.74.74,0,0,1,.63.85c0,.31,0,.63,0,1S26.86,26.54,26.66,26.53Zm-.13-7.41c0,.61-.15.78-.65.75s-.54-.17-.54-.56a2.09,2.09,0,0,0,0-.25c0-.23,0-.46.25-.55a.83.83,0,0,1,.82.07C26.61,18.72,26.5,19,26.53,19.12ZM26,16.07c.37,0,.48.17.49.55a2.09,2.09,0,0,0,0,.25c0,.23,0,.46-.24.56a.86.86,0,0,1-.82-.06c-.22-.15-.1-.39-.14-.54C25.33,16.2,25.51,16,26,16.07Zm.41-4.75c.27,0,.46,0,.42.36s0,.41-.44.41-.46,0-.46-.38S26,11.33,26.45,11.32Zm-.73.64c0,.09,0,.13-.14.13h-.34c-.11,0-.32.09-.37-.08a1.84,1.84,0,0,1,0-.62c0-.06.07-.07.13-.07h.22C25.74,11.32,25.82,11.43,25.72,12Zm1.59.14c-.37,0-.12-.3-.2-.4,0-.37.13-.47.48-.38.07,0,.1,0,.1.12s0,.17,0,.26S27.66,12.13,27.31,12.1Zm9.82,15.6a.47.47,0,0,1-.5.2A57.47,57.47,0,0,0,30,27.22c-.2,0-.42.05-.37-.31a.31.31,0,0,0-.32-.36c-.23,0-.26-.1-.28-.27l-.39-3.88q-.37-3.57-.74-7.14c-.09-.82-.17-1.64-.26-2.46,0-.09,0-.2.12-.2s.25-.14.27-.3.06-.51.1-.76c0-.07,0-.17.09-.21a.14.14,0,0,0,.09-.2c0-.12-.14-.11-.24-.11H23.65c-.11,0-.25,0-.29.12s0,.18.16.21.06.12.07.19c0,.27.08.55.11.82s.09.25.24.24.22.11.2.27L23,23c-.12,1.1-.25,2.2-.37,3.3,0,.15,0,.25-.23.26A.36.36,0,0,0,22,27c0,.21,0,.25-.21.26a53.25,53.25,0,0,0-6,.69.83.83,0,0,0-.22,0c-.55.24-.89,0-1.24-.44A15,15,0,0,1,11,19.11,13.69,13.69,0,0,1,12.2,12,14.61,14.61,0,0,1,23,3.44a14.31,14.31,0,0,1,9.19,1.18,14.32,14.32,0,0,1,8.4,11.66A14.37,14.37,0,0,1,37.13,27.7Z"/><path class="cls-2" d="M17.63,17.49a.31.31,0,0,0-.35.29.31.31,0,0,0,.32.36.3.3,0,0,0,.33-.3A.31.31,0,0,0,17.63,17.49Z"/><path class="cls-2" d="M22.33,5.53c-.31-.35-.22-.73.05-1.15-.63.22-.93.62-.88,1.09a1.08,1.08,0,0,0,.91,1,1.11,1.11,0,0,0,1.25-.69A1.05,1.05,0,0,1,22.33,5.53ZM21.92,6a.73.73,0,0,1,0-1.13c0,.76.34,1.1,1.12,1.22A.86.86,0,0,1,21.92,6Z"/><path class="cls-2" d="M17.65,7.91a.49.49,0,0,0-.5.47.48.48,0,0,0,.47.5.47.47,0,0,0,.49-.47A.49.49,0,0,0,17.65,7.91Zm0,.76a.25.25,0,0,1-.28-.27.27.27,0,0,1,.3-.29.28.28,0,0,1,.27.3A.27.27,0,0,1,17.63,8.67Z"/><path class="cls-2" d="M33.78,8.29a.49.49,0,0,0-.48.48.47.47,0,0,0,.47.49.5.5,0,0,0,.49-.48A.5.5,0,0,0,33.78,8.29Zm.28.5a.27.27,0,0,1-.28.27.27.27,0,0,1-.29-.3c0-.18.12-.25.28-.28S34.07,8.61,34.06,8.79Z"/><polygon class="cls-2" points="13.7 15.62 13.57 15.35 13.44 15.62 13.14 15.66 13.36 15.87 13.31 16.16 13.57 16.02 13.84 16.16 13.78 15.87 14 15.66 13.7 15.62"/><polygon class="cls-2" points="30.67 12.99 30.54 12.71 30.4 12.99 30.09 13.03 30.31 13.25 30.26 13.56 30.54 13.41 30.81 13.56 30.76 13.25 30.98 13.03 30.67 12.99"/><polygon class="cls-2" points="33.09 19.17 32.97 18.91 32.84 19.17 32.57 19.21 32.77 19.4 32.72 19.68 32.97 19.55 33.22 19.68 33.17 19.4 33.37 19.21 33.09 19.17"/><rect class="cls-2" x="19.23" y="12.63" width="0.62" height="0.62" rx="0.04" transform="translate(-3.59 16.69) rotate(-42.73)"/><rect class="cls-2" x="29.91" y="6.54" width="0.62" height="0.62" rx="0.04" transform="translate(3.37 22.32) rotate(-42.73)"/><rect class="cls-2" x="36.21" y="15.83" width="0.62" height="0.62" rx="0.04" transform="translate(-1.26 29.06) rotate(-42.73)"/><rect class="cls-2" x="25.68" y="9.62" width="0.4" height="0.25" rx="0.08"/><path class="cls-2" d="M27.49,8.44A.44.44,0,0,0,27.05,8h-.38V7.47a.35.35,0,0,0-.35-.35h0V5.71a.15.15,0,0,0-.13-.15V5.49a.38.38,0,0,0-.28-.39V3.51h-.13V5.1a.4.4,0,0,0-.27.39v.07a.15.15,0,0,0-.1.15V7.12h.09a.35.35,0,0,0-.35.35V8h-.23a.63.63,0,0,0-.63.63v1.68h3.19Zm-1.12,1.67h-.91V9.43a.27.27,0,0,1,.27-.27h0V8.77h.34v.39h0a.27.27,0,0,1,.27.27Z"/></svg>