<svg id="Layer_1" data-name="Layer 1" xmlns="http://www.w3.org/2000/svg" viewBox="0 0 164 26"><defs><style>.cls-1{fill:#fff;}.cls-2{fill:#0094ff;}</style></defs><path class="cls-1" d="M43.76,15H39.24V9.12h1.37v4.62h3.15Z"/><path class="cls-1" d="M44.6,9.41V8.33H46V9.41Zm0,5.61V10.1H46V15Z"/><path class="cls-1" d="M49.72,15H47.9l-1.14-1.13V11.23L47.9,10.1h3.59v5.76L50.36,17h-3.1V15.71h2.46l.39-.39V11.38H48.54l-.4.39v1.58l.4.39h1.18Z"/><path class="cls-1" d="M55.52,15V11.77l-.39-.39H53.85l-.2.2V15H52.28V8.13h1.37V10l-.37.38.23.21L54,10.1h1.77l1.13,1.13V15Z"/><path class="cls-1" d="M60.44,15H58.82l-1.13-1.13V8.33h1.38v1.92h1.28v1.28H59.07v1.82l.39.39h1Z"/><path class="cls-1" d="M64.48,15V11.77l-.39-.39H62.81l-.2.2V15H61.23V8.13h1.38V10l-.37.38.22.21L63,10.1h1.77l1.14,1.13V15Z"/><path class="cls-1" d="M66.64,13.89V11.23l1.14-1.13h2.65l1.13,1.13v2.66L70.43,15H67.78ZM68,11.77v1.58l.4.39h1.37l.4-.39V11.77l-.4-.39H68.42Z"/><path class="cls-1" d="M73.73,10.1v3.25l.39.39H75.4l.2-.19V10.1H77V15H75.85l-.1-.49-.49.49H73.48l-1.13-1.13V10.1Z"/><path class="cls-1" d="M77.76,13.74h3.15l.3-.29-.3-.3h-2L77.76,12v-.79L78.9,10.1h3.49v1.28H79.54l-.3.3.3.29h2l1.14,1.13v.79L81.55,15H77.76Z"/><path class="cls-1" d="M85.34,12.07H87v-.3l-.4-.39H85.24l-.39.39v1.58l.39.39H87.9V15H84.6l-1.13-1.13V11.23L84.6,10.1h2.66l1.13,1.13v2h-3Z"/><path class="cls-1" d="M102.45,14.67H99.31l-.51-1.89H93.44l-.51,1.89H89.77L93.33,1.33h5.56ZM94.22,9.89H98L96.51,4.22h-.78Z"/><path class="cls-1" d="M109.12,3.89H108v8.23h1.11v2.55h-5.34V12.12h1.12V3.89h-1.12V1.33h5.34Z"/><path class="cls-1" d="M40.19,20h1.34c.07,0,.1,0,.1.1v2a.24.24,0,0,1-.12.21,2.56,2.56,0,0,1-1.36.31c-1.42,0-2.13-.76-2.13-2.29s.72-2.28,2.17-2.28a2.42,2.42,0,0,1,1.2.27c.07,0,.1.07.08.12l-.11.27c0,.07-.08.09-.14.06a2.14,2.14,0,0,0-1-.22A1.61,1.61,0,0,0,39,19a2,2,0,0,0-.39,1.35A2,2,0,0,0,39,21.7a1.55,1.55,0,0,0,1.22.43,1.92,1.92,0,0,0,.91-.19V20.48h-.91c-.08,0-.12,0-.12-.1V20.1C40.07,20,40.11,20,40.19,20Z"/><path class="cls-1" d="M42.56,21.44V19.39a.09.09,0,0,1,.1-.1H43c.06,0,.09,0,.09.1v2a.7.7,0,0,0,.78.8,1,1,0,0,0,.7-.24.87.87,0,0,0,.27-.67V19.39a.09.09,0,0,1,.1-.1h.31a.09.09,0,0,1,.1.1v3.07c0,.07,0,.11-.1.11h-.31a.09.09,0,0,1-.1-.1v-.42a1.11,1.11,0,0,1-1.09.58,1.14,1.14,0,0,1-.88-.32A1.25,1.25,0,0,1,42.56,21.44Z"/><path class="cls-1" d="M46.83,18.26v.51c0,.07,0,.1-.09.1h-.32c-.06,0-.09,0-.09-.1v-.51c0-.07,0-.1.09-.1h.32C46.8,18.16,46.83,18.19,46.83,18.26Zm0,1.13v3.07c0,.07,0,.11-.09.11h-.32c-.06,0-.09,0-.09-.11V19.39c0-.06,0-.1.09-.1h.32C46.8,19.29,46.83,19.33,46.83,19.39Z"/><path class="cls-1" d="M50.3,22.47V22a1.17,1.17,0,0,1-1.17.61,1.37,1.37,0,0,1-1.07-.43,1.87,1.87,0,0,1-.39-1.28,1.84,1.84,0,0,1,.39-1.27,1.34,1.34,0,0,1,1.07-.43,1.49,1.49,0,0,1,.71.16,1,1,0,0,1,.45.46V18.23c0-.07,0-.1.1-.1h.31c.07,0,.1,0,.1.1v4.23c0,.07,0,.11-.1.11h-.31C50.33,22.57,50.3,22.53,50.3,22.47ZM50,21.86a1.39,1.39,0,0,0,.29-.94A1.35,1.35,0,0,0,50,20a1.14,1.14,0,0,0-1.56,0,1.46,1.46,0,0,0-.26,1,1.47,1.47,0,0,0,.26,1,1,1,0,0,0,.77.3A1,1,0,0,0,50,21.86Z"/><path class="cls-1" d="M52.34,18.26v.51a.09.09,0,0,1-.1.1h-.31c-.07,0-.1,0-.1-.1v-.51c0-.07,0-.1.1-.1h.31A.09.09,0,0,1,52.34,18.26Zm0,1.13v3.07a.1.1,0,0,1-.1.11h-.31c-.07,0-.1,0-.1-.11V19.39a.09.09,0,0,1,.1-.1h.31A.09.09,0,0,1,52.34,19.39Z"/><path class="cls-1" d="M56.13,20.4v2.06c0,.07,0,.11-.1.11h-.31c-.07,0-.1,0-.1-.11v-2a.7.7,0,0,0-.8-.78,1,1,0,0,0-.72.26.91.91,0,0,0-.26.68v1.83c0,.07,0,.11-.1.11h-.31a.1.1,0,0,1-.1-.11V19.39a.09.09,0,0,1,.1-.1h.3c.07,0,.1,0,.1.1v.41A1.14,1.14,0,0,1,55,19.22a1.15,1.15,0,0,1,.88.31A1.25,1.25,0,0,1,56.13,20.4Z"/><path class="cls-1" d="M59.86,19.39V22.1a1.12,1.12,0,0,1-.39.91,1.64,1.64,0,0,1-1.08.33,2.75,2.75,0,0,1-1.1-.19c-.06,0-.08-.06-.06-.1l.09-.26c0-.07.06-.09.12-.07a2.54,2.54,0,0,0,.94.17,1.09,1.09,0,0,0,.72-.22.74.74,0,0,0,.26-.6v-.36a.88.88,0,0,1-.41.42,1.34,1.34,0,0,1-.64.15,1.31,1.31,0,0,1-1-.38,1.55,1.55,0,0,1-.38-1.14,1.6,1.6,0,0,1,.37-1.16,1.31,1.31,0,0,1,1-.38,1.44,1.44,0,0,1,.65.15,1,1,0,0,1,.42.4v-.38c0-.07,0-.1.1-.1h.31C59.83,19.29,59.86,19.33,59.86,19.39Zm-.5,1.32a1.09,1.09,0,0,0-.26-.79.92.92,0,0,0-.71-.27c-.63,0-.94.37-.94,1.11s.31,1.1.94,1.1a.89.89,0,0,0,.71-.3A1.23,1.23,0,0,0,59.36,20.71Z"/><path class="cls-1" d="M65.27,19.4l-1,3a1.6,1.6,0,0,1-.39.72.94.94,0,0,1-.67.21,1.44,1.44,0,0,1-.46-.07c-.06,0-.09-.06-.08-.1l.08-.26a.1.1,0,0,1,.11-.07,1.81,1.81,0,0,0,.32.05.48.48,0,0,0,.33-.1.29.29,0,0,0,.12-.25.54.54,0,0,0,0-.21L62.44,19.4c0-.07,0-.11.07-.11h.32a.13.13,0,0,1,.11.1l.61,1.67.35,1h0l.31-1,.52-1.66c0-.07.06-.1.11-.1h.34C65.27,19.29,65.29,19.33,65.27,19.4Z"/><path class="cls-1" d="M67.27,22.63a1.49,1.49,0,0,1-1.15-.45,1.74,1.74,0,0,1-.42-1.26,1.78,1.78,0,0,1,.42-1.26,1.71,1.71,0,0,1,2.29,0,1.78,1.78,0,0,1,.42,1.26,1.74,1.74,0,0,1-.42,1.26A1.48,1.48,0,0,1,67.27,22.63Zm0-.45a.93.93,0,0,0,.76-.32,1.41,1.41,0,0,0,.27-.94A1.42,1.42,0,0,0,68,20a1.1,1.1,0,0,0-1.53,0,1.42,1.42,0,0,0-.27.94,1.41,1.41,0,0,0,.27.94A.92.92,0,0,0,67.27,22.18Z"/><path class="cls-1" d="M69.6,21.44V19.39a.09.09,0,0,1,.1-.1H70c.06,0,.09,0,.09.1v2a.7.7,0,0,0,.78.8,1,1,0,0,0,.7-.24.87.87,0,0,0,.27-.67V19.39a.09.09,0,0,1,.1-.1h.31a.09.09,0,0,1,.1.1v3.07c0,.07,0,.11-.1.11H72a.09.09,0,0,1-.1-.1v-.42a1.11,1.11,0,0,1-1.09.58,1.16,1.16,0,0,1-.88-.32A1.25,1.25,0,0,1,69.6,21.44Z"/><path class="cls-1" d="M78.11,20.4v2.06c0,.07,0,.11-.1.11H77.7c-.07,0-.1,0-.1-.11v-2a.71.71,0,0,0-.81-.79,1,1,0,0,0-.73.27.89.89,0,0,0-.27.67v1.84a.09.09,0,0,1-.1.1h-.31a.1.1,0,0,1-.1-.11V18.23a.09.09,0,0,1,.1-.1h.31c.07,0,.1,0,.1.1V19.8a1.16,1.16,0,0,1,.39-.41,1.47,1.47,0,0,1,.74-.17,1.15,1.15,0,0,1,.88.31A1.17,1.17,0,0,1,78.11,20.4Z"/><path class="cls-1" d="M80.46,22.63a1.48,1.48,0,0,1-1.14-.45,1.74,1.74,0,0,1-.42-1.26,1.78,1.78,0,0,1,.42-1.26,1.7,1.7,0,0,1,2.28,0A1.78,1.78,0,0,1,82,20.92a1.74,1.74,0,0,1-.42,1.26A1.48,1.48,0,0,1,80.46,22.63Zm0-.45a.94.94,0,0,0,.77-.32,1.41,1.41,0,0,0,.27-.94,1.42,1.42,0,0,0-.27-.94,1,1,0,0,0-.77-.31.93.93,0,0,0-.76.31,1.42,1.42,0,0,0-.27.94,1.41,1.41,0,0,0,.27.94A.9.9,0,0,0,80.46,22.18Z"/><path class="cls-1" d="M85.49,20.53v1.93c0,.07,0,.11-.1.11h-.31c-.07,0-.1,0-.1-.11v-2c0-.5-.23-.75-.7-.75a.86.86,0,0,0-.92.9v1.87c0,.07,0,.11-.1.11H83a.1.1,0,0,1-.1-.11V19.39a.09.09,0,0,1,.1-.1h.31c.07,0,.1,0,.1.1v.41a1,1,0,0,1,.36-.41,1.24,1.24,0,0,1,.68-.17.92.92,0,0,1,1,.61,1.16,1.16,0,0,1,1.14-.61,1,1,0,0,1,.81.31,1.26,1.26,0,0,1,.28.85v2.08a.1.1,0,0,1-.1.11h-.31c-.07,0-.1,0-.1-.11v-2a.92.92,0,0,0-.16-.57.73.73,0,0,0-.55-.19.92.92,0,0,0-.66.24A.82.82,0,0,0,85.49,20.53Z"/><path class="cls-1" d="M90.11,22.21a1.71,1.71,0,0,0,.83-.21c.06,0,.1,0,.14.06l.09.23a.1.1,0,0,1-.07.12,2.24,2.24,0,0,1-1,.23,1.63,1.63,0,0,1-1.23-.46,1.69,1.69,0,0,1-.45-1.24,1.81,1.81,0,0,1,.41-1.27,1.4,1.4,0,0,1,1.1-.45,1.34,1.34,0,0,1,1.06.42,1.58,1.58,0,0,1,.38,1.1v.32a.1.1,0,0,1-.11.1H88.92a1.11,1.11,0,0,0,.35.76A1.24,1.24,0,0,0,90.11,22.21Zm-.19-2.56c-.63,0-1,.36-1,1.08h1.94v0a1.14,1.14,0,0,0-.24-.76A.86.86,0,0,0,89.92,19.65Z"/><path class="cls-2" d="M19.13,8.31H16.58a.13.13,0,0,0-.13.14.13.13,0,0,0,.13.13h2.55a.13.13,0,0,0,.14-.13A.14.14,0,0,0,19.13,8.31Z"/><path class="cls-2" d="M17.74,2.6A11.32,11.32,0,1,0,29.08,14,11.33,11.33,0,0,0,17.74,2.6Zm-1.07,7c-.21,0-.23-.05-.25-.42s.13-.13.23-.15c.25,0,.27.1.24.29S16.91,9.61,16.67,9.59Zm1.74,10.53c-.21,0-.43,0-.64,0h0c-.21,0-.42,0-.63,0s-.21,0-.21-.2,0-.5,0-.76a.45.45,0,0,1,.29-.47,1.18,1.18,0,0,1,.92-.07.54.54,0,0,1,.45.62c0,.23,0,.46,0,.69S18.56,20.13,18.41,20.12Zm-.1-5.41c0,.45-.11.57-.47.55s-.4-.12-.4-.41v-.18c0-.17,0-.34.18-.41a.64.64,0,0,1,.6.06C18.37,14.42,18.29,14.6,18.31,14.71ZM18,12.49c.27,0,.36.12.36.4v.18c0,.17,0,.34-.18.41a.6.6,0,0,1-.59-.05c-.16-.11-.08-.28-.1-.39C17.44,12.58,17.57,12.45,18,12.49ZM18.25,9c.2,0,.34,0,.31.26s0,.3-.32.3-.33,0-.33-.28S17.91,9,18.25,9Zm-.53.47c0,.06,0,.09-.1.09h-.25c-.08,0-.24.07-.27-.05a1.42,1.42,0,0,1,0-.46s.06-.05.1-.05h.16C17.73,9,17.8,9.1,17.72,9.49Zm1.16.1c-.27,0-.09-.22-.15-.29,0-.28.1-.35.35-.28a.08.08,0,0,1,.08.09c0,.06,0,.12,0,.19S19.14,9.61,18.88,9.59ZM26.05,21a.36.36,0,0,1-.37.14,39.77,39.77,0,0,0-4.87-.49c-.15,0-.31,0-.27-.23a.23.23,0,0,0-.24-.26c-.16,0-.18-.08-.2-.21-.09-.94-.19-1.88-.29-2.82l-.54-5.22-.18-1.79c0-.07,0-.15.08-.14s.19-.11.2-.23.05-.36.07-.55,0-.12.07-.15a.11.11,0,0,0,.06-.15c0-.09-.1-.08-.17-.08H16.21c-.08,0-.18,0-.21.09s0,.13.12.15,0,.09.05.14c0,.2,0,.4.07.6s.07.18.18.17.16.08.15.2q-.42,3.7-.83,7.39c-.09.81-.19,1.61-.27,2.41,0,.11,0,.18-.17.19a.26.26,0,0,0-.26.35c0,.16,0,.18-.15.19a40.75,40.75,0,0,0-4.41.5.9.9,0,0,0-.16,0c-.4.17-.65,0-.9-.33A10.81,10.81,0,0,1,7,14.7a10.07,10.07,0,0,1,.9-5.17A10.71,10.71,0,0,1,15.7,3.27a10.44,10.44,0,0,1,6.71.86,10.47,10.47,0,0,1,6.14,8.51A10.55,10.55,0,0,1,26.05,21Z"/><path class="cls-2" d="M11.82,13.52a.22.22,0,0,0-.25.21.23.23,0,1,0,.46,0A.22.22,0,0,0,11.82,13.52Z"/><path class="cls-2" d="M15.25,4.8c-.23-.26-.17-.54,0-.84-.46.16-.68.45-.65.79a.8.8,0,0,0,.67.7.82.82,0,0,0,.91-.5A.77.77,0,0,1,15.25,4.8Zm-.31.33a.55.55,0,0,1,0-.83c0,.55.25.8.81.89A.62.62,0,0,1,14.94,5.13Z"/><path class="cls-2" d="M11.83,6.53a.36.36,0,0,0-.36.35.35.35,0,0,0,.34.36.36.36,0,0,0,.36-.34A.36.36,0,0,0,11.83,6.53Zm0,.56a.19.19,0,0,1-.21-.2.19.19,0,0,1,.22-.21c.12,0,.19.08.2.21A.2.2,0,0,1,11.82,7.09Z"/><path class="cls-2" d="M23.6,6.81a.35.35,0,0,0-.35.35.35.35,0,0,0,.35.36A.35.35,0,0,0,24,7.17.36.36,0,0,0,23.6,6.81Zm.21.36a.2.2,0,0,1-.21.2.2.2,0,0,1-.21-.22c0-.13.09-.18.21-.2A.21.21,0,0,1,23.81,7.17Z"/><polygon class="cls-2" points="8.95 12.16 8.86 11.96 8.76 12.16 8.54 12.19 8.7 12.34 8.66 12.55 8.86 12.45 9.05 12.55 9.01 12.34 9.17 12.19 8.95 12.16"/><polygon class="cls-2" points="21.34 10.24 21.23 10.03 21.13 10.24 20.91 10.27 21.07 10.43 21.03 10.65 21.23 10.55 21.44 10.65 21.4 10.43 21.56 10.27 21.34 10.24"/><polygon class="cls-2" points="23.1 14.74 23.01 14.56 22.92 14.74 22.72 14.78 22.86 14.92 22.83 15.12 23.01 15.02 23.19 15.12 23.16 14.92 23.3 14.78 23.1 14.74"/><rect class="cls-2" x="12.99" y="9.98" width="0.45" height="0.45" rx="0.03" transform="translate(-3.41 11.67) rotate(-42.73)"/><rect class="cls-2" x="20.78" y="5.53" width="0.45" height="0.45" rx="0.03" transform="translate(1.67 15.78) rotate(-42.73)"/><rect class="cls-2" x="25.38" y="12.31" width="0.45" height="0.45" rx="0.03" transform="translate(-1.71 20.7) rotate(-42.73)"/><rect class="cls-2" x="17.7" y="7.78" width="0.29" height="0.18" rx="0.06"/><path class="cls-2" d="M19,6.92a.32.32,0,0,0-.32-.33h-.28V6.21A.25.25,0,0,0,18.16,6h0v-1a.1.1,0,0,0-.09-.1V4.76a.29.29,0,0,0-.2-.28V3.32h-.09V4.48a.27.27,0,0,0-.2.28v.06a.11.11,0,0,0-.08.1V6h.07a.26.26,0,0,0-.26.25v.38h-.16a.47.47,0,0,0-.47.47V8.28H19ZM18.2,8.14h-.67v-.5a.2.2,0,0,1,.2-.2h0V7.16H18v.28h0a.2.2,0,0,1,.2.2Z"/></svg>