<svg id="Layer_1" data-name="Layer 1" xmlns="http://www.w3.org/2000/svg" viewBox="0 0 164 26"><defs><style>.cls-1{fill:#3f4254;}.cls-2{fill:#0094ff;}</style></defs><path class="cls-1" d="M44.35,15.85H39.51V9.53H41v5h3.37Z"/><path class="cls-1" d="M45.25,9.85V8.69h1.47V9.85Zm0,6V10.58h1.47v5.27Z"/><path class="cls-1" d="M50.73,15.85H48.78l-1.21-1.21V11.79l1.21-1.21h3.84v6.17L51.41,18H48.09V16.59h2.64l.42-.42V12H49.46l-.42.42v1.69l.42.42h1.27Z"/><path class="cls-1" d="M56.94,15.85V12.37L56.52,12H55.15l-.21.21v3.69H53.47V8.48h1.47v2l-.4.4.24.23.53-.53h1.9l1.21,1.21v4.06Z"/><path class="cls-1" d="M62.21,15.85H60.47l-1.21-1.21v-6h1.48v2.05h1.37v1.37H60.74v2l.42.42h1.05Z"/><path class="cls-1" d="M66.53,15.85V12.37L66.11,12H64.74l-.21.21v3.69H63.05V8.48h1.48v2l-.4.4.24.23.53-.53h1.89L68,11.79v4.06Z"/><path class="cls-1" d="M68.85,14.64V11.79l1.21-1.21h2.85l1.21,1.21v2.85l-1.21,1.21H70.06Zm1.47-2.27v1.69l.43.42h1.47l.42-.42V12.37L72.22,12H70.75Z"/><path class="cls-1" d="M76.44,10.58v3.48l.42.42h1.37l.21-.21V10.58h1.47v5.27H78.7l-.1-.53-.53.53h-1.9L75,14.64V10.58Z"/><path class="cls-1" d="M80.76,14.48h3.37l.31-.31-.31-.32H82l-1.21-1.21v-.85L82,10.58h3.74V12H82.65l-.31.32.31.32h2.16L86,13.8v.84l-1.21,1.21h-4Z"/><path class="cls-1" d="M88.87,12.69h1.79v-.32L90.24,12H88.76l-.42.42v1.69l.42.42h2.85v1.37H88.08l-1.21-1.21V11.79l1.21-1.21h2.84l1.21,1.21V14H88.87Z"/><path class="cls-1" d="M107.18,15.48h-3.35l-.55-2H97.54l-.55,2H93.61L97.42,1.19h6Zm-8.81-5.12h4.08l-1.62-6.07H100Z"/><path class="cls-1" d="M114.33,3.93h-1.19v8.81h1.19v2.74h-5.72V12.74h1.19V3.93h-1.19V1.19h5.72Z"/><path class="cls-1" d="M40.52,21.18H42a.1.1,0,0,1,.11.11v2.15a.23.23,0,0,1-.13.22,2.68,2.68,0,0,1-1.45.34c-1.52,0-2.29-.82-2.29-2.45s.78-2.44,2.32-2.44a2.51,2.51,0,0,1,1.29.29c.08,0,.1.07.09.13l-.12.29a.11.11,0,0,1-.15.06,2.28,2.28,0,0,0-1.07-.24,1.73,1.73,0,0,0-1.34.46,2.11,2.11,0,0,0-.42,1.45A2.11,2.11,0,0,0,39.22,23a1.66,1.66,0,0,0,1.3.46,2.16,2.16,0,0,0,1-.2V21.7h-1c-.08,0-.12,0-.12-.11v-.3C40.4,21.22,40.44,21.18,40.52,21.18Z"/><path class="cls-1" d="M43.06,22.72V20.53a.1.1,0,0,1,.11-.11h.33c.07,0,.1,0,.1.11v2.11a.75.75,0,0,0,.83.86,1,1,0,0,0,.75-.27.89.89,0,0,0,.29-.72v-2a.1.1,0,0,1,.11-.11h.33a.1.1,0,0,1,.11.11v3.29a.1.1,0,0,1-.11.11h-.33a.1.1,0,0,1-.11-.1v-.45A1.2,1.2,0,0,1,44.3,24a1.22,1.22,0,0,1-.93-.34A1.33,1.33,0,0,1,43.06,22.72Z"/><path class="cls-1" d="M47.64,19.32v.54c0,.08,0,.11-.1.11H47.2c-.07,0-.1,0-.1-.11v-.54c0-.08,0-.11.1-.11h.34C47.61,19.21,47.64,19.24,47.64,19.32Zm0,1.21v3.29c0,.07,0,.11-.1.11H47.2c-.07,0-.1,0-.1-.11V20.53c0-.07,0-.11.1-.11h.34C47.61,20.42,47.64,20.46,47.64,20.53Z"/><path class="cls-1" d="M51.35,23.83v-.49a1.24,1.24,0,0,1-1.26.66A1.46,1.46,0,0,1,49,23.53a2,2,0,0,1-.42-1.36A2,2,0,0,1,49,20.81a1.46,1.46,0,0,1,1.14-.47,1.59,1.59,0,0,1,.77.18,1,1,0,0,1,.48.49V19.28c0-.07,0-.1.11-.1h.33c.07,0,.11,0,.11.1v4.54a.1.1,0,0,1-.11.11h-.33A.09.09,0,0,1,51.35,23.83ZM51,23.17a1.77,1.77,0,0,0,0-2,1.06,1.06,0,0,0-.84-.35,1,1,0,0,0-.83.33,1.55,1.55,0,0,0-.28,1,1.55,1.55,0,0,0,.28,1,1,1,0,0,0,.83.33A1.06,1.06,0,0,0,51,23.17Z"/><path class="cls-1" d="M53.53,19.32v.54c0,.08,0,.11-.1.11h-.34c-.07,0-.1,0-.1-.11v-.54c0-.08,0-.11.1-.11h.34C53.5,19.21,53.53,19.24,53.53,19.32Zm0,1.21v3.29c0,.07,0,.11-.1.11h-.34c-.07,0-.1,0-.1-.11V20.53c0-.07,0-.11.1-.11h.34C53.5,20.42,53.53,20.46,53.53,20.53Z"/><path class="cls-1" d="M57.6,21.62v2.2a.1.1,0,0,1-.11.11h-.33a.1.1,0,0,1-.11-.11V21.69a.75.75,0,0,0-.86-.84,1.06,1.06,0,0,0-.77.27,1,1,0,0,0-.28.73v2a.1.1,0,0,1-.11.11H54.7c-.07,0-.1,0-.1-.11V20.53c0-.07,0-.11.1-.11H55c.07,0,.1,0,.1.11V21a1.23,1.23,0,0,1,1.2-.63,1.26,1.26,0,0,1,.94.34A1.34,1.34,0,0,1,57.6,21.62Z"/><path class="cls-1" d="M61.59,20.53v2.9a1.19,1.19,0,0,1-.43,1,1.74,1.74,0,0,1-1.14.34,2.83,2.83,0,0,1-1.19-.2c-.06,0-.08-.06-.06-.11l.1-.27A.09.09,0,0,1,59,24.1a2.83,2.83,0,0,0,1,.17,1.16,1.16,0,0,0,.77-.23.78.78,0,0,0,.28-.65V23a.93.93,0,0,1-.44.46,1.52,1.52,0,0,1-.69.15,1.45,1.45,0,0,1-1.07-.4,1.67,1.67,0,0,1-.4-1.23,1.71,1.71,0,0,1,.39-1.23,1.4,1.4,0,0,1,1.06-.42,1.51,1.51,0,0,1,.7.17.9.9,0,0,1,.45.43v-.41c0-.07,0-.11.11-.11h.33A.1.1,0,0,1,61.59,20.53ZM61.05,22a1.2,1.2,0,0,0-.27-.86,1,1,0,0,0-.76-.28c-.68,0-1,.4-1,1.18s.34,1.18,1,1.18a.93.93,0,0,0,.75-.31A1.37,1.37,0,0,0,61.05,22Z"/><path class="cls-1" d="M67.38,20.54l-1.09,3.17a1.77,1.77,0,0,1-.42.77,1,1,0,0,1-.72.22,1.59,1.59,0,0,1-.49-.07c-.07,0-.09-.06-.08-.11l.08-.27a.1.1,0,0,1,.11-.08,2.36,2.36,0,0,0,.35,0,.52.52,0,0,0,.35-.1.32.32,0,0,0,.13-.27.68.68,0,0,0,0-.23l-1.2-3.08c0-.08,0-.12.07-.12h.35s.09,0,.11.11l.65,1.79.38,1h0l.32-1,.56-1.78c0-.07.06-.11.12-.11h.36C67.38,20.42,67.4,20.46,67.38,20.54Z"/><path class="cls-1" d="M69.51,24a1.6,1.6,0,0,1-1.22-.48,1.9,1.9,0,0,1-.45-1.35,1.9,1.9,0,0,1,.45-1.35,1.8,1.8,0,0,1,2.45,0,1.9,1.9,0,0,1,.45,1.35,1.9,1.9,0,0,1-.45,1.35A1.6,1.6,0,0,1,69.51,24Zm0-.48a1,1,0,0,0,.82-.34,1.49,1.49,0,0,0,.29-1,1.49,1.49,0,0,0-.29-1,1,1,0,0,0-.82-.34,1,1,0,0,0-.82.34,1.9,1.9,0,0,0,0,2A1,1,0,0,0,69.51,23.52Z"/><path class="cls-1" d="M72,22.72V20.53a.1.1,0,0,1,.11-.11h.33c.07,0,.1,0,.1.11v2.11a.75.75,0,0,0,.83.86,1,1,0,0,0,.75-.27.89.89,0,0,0,.3-.72v-2c0-.07,0-.11.1-.11h.33a.1.1,0,0,1,.11.11v3.29a.1.1,0,0,1-.11.11h-.33a.09.09,0,0,1-.1-.1v-.45a1.44,1.44,0,0,1-2.11.28A1.33,1.33,0,0,1,72,22.72Z"/><path class="cls-1" d="M81.12,21.62v2.2c0,.07,0,.11-.1.11h-.34c-.07,0-.1,0-.1-.11V21.7a.76.76,0,0,0-.87-.85,1.06,1.06,0,0,0-.78.29,1,1,0,0,0-.28.72v2a.1.1,0,0,1-.11.1h-.33a.1.1,0,0,1-.11-.11V19.28c0-.07,0-.1.11-.1h.33c.07,0,.11,0,.11.1V21a1.06,1.06,0,0,1,.41-.44,1.54,1.54,0,0,1,.79-.19,1.3,1.3,0,0,1,1,.34A1.34,1.34,0,0,1,81.12,21.62Z"/><path class="cls-1" d="M83.64,24a1.6,1.6,0,0,1-1.22-.48A1.9,1.9,0,0,1,82,22.17a1.9,1.9,0,0,1,.45-1.35,1.8,1.8,0,0,1,2.45,0,1.9,1.9,0,0,1,.45,1.35,1.9,1.9,0,0,1-.45,1.35A1.6,1.6,0,0,1,83.64,24Zm0-.48a1,1,0,0,0,.82-.34,1.49,1.49,0,0,0,.29-1,1.49,1.49,0,0,0-.29-1,1,1,0,0,0-.82-.34,1,1,0,0,0-.82.34,1.54,1.54,0,0,0-.28,1,1.54,1.54,0,0,0,.28,1A1,1,0,0,0,83.64,23.52Z"/><path class="cls-1" d="M89,21.75v2.07a.1.1,0,0,1-.11.11h-.33a.1.1,0,0,1-.11-.11V21.66q0-.81-.75-.81a1,1,0,0,0-.72.26,1,1,0,0,0-.26.7v2a.1.1,0,0,1-.11.11h-.33a.1.1,0,0,1-.11-.11V20.53a.1.1,0,0,1,.11-.11h.33a.1.1,0,0,1,.11.11V21a1,1,0,0,1,.38-.44,1.31,1.31,0,0,1,.73-.19,1,1,0,0,1,1.06.66,1.24,1.24,0,0,1,1.22-.66,1.08,1.08,0,0,1,.86.34,1.31,1.31,0,0,1,.3.91v2.23c0,.07,0,.11-.1.11h-.33a.1.1,0,0,1-.11-.11V21.66a.88.88,0,0,0-.18-.6.71.71,0,0,0-.58-.21,1,1,0,0,0-.7.26A.84.84,0,0,0,89,21.75Z"/><path class="cls-1" d="M94,23.54a1.94,1.94,0,0,0,.89-.21q.09-.06.15.06l.1.25a.1.1,0,0,1-.07.12A2.33,2.33,0,0,1,94,24a1.75,1.75,0,0,1-1.32-.49,1.83,1.83,0,0,1-.48-1.34,2,2,0,0,1,.44-1.36,1.51,1.51,0,0,1,1.18-.48,1.42,1.42,0,0,1,1.13.45A1.71,1.71,0,0,1,95.31,22v.34c0,.07,0,.11-.12.11h-2.5a1.19,1.19,0,0,0,.38.81A1.28,1.28,0,0,0,94,23.54Zm-.2-2.73c-.68,0-1,.39-1.08,1.16h2.09v0a1.26,1.26,0,0,0-.26-.82A.93.93,0,0,0,93.77,20.81Z"/><path class="cls-2" d="M21.9,7.2H19.17a.15.15,0,0,0-.15.14.15.15,0,0,0,.15.15H21.9A.15.15,0,0,0,22,7.34.14.14,0,0,0,21.9,7.2Z"/><path class="cls-2" d="M20.4,1.08A12.13,12.13,0,1,0,32.55,13.24,12.14,12.14,0,0,0,20.4,1.08ZM19.27,8.56c-.24,0-.26-.05-.28-.45,0-.23.15-.13.25-.15.27,0,.29.1.26.31S19.52,8.59,19.27,8.56Zm1.85,11.28c-.22,0-.46,0-.69,0h0c-.22,0-.44,0-.66,0s-.24,0-.23-.21,0-.54,0-.81a.5.5,0,0,1,.31-.51,1.24,1.24,0,0,1,1-.07.57.57,0,0,1,.49.66c0,.25,0,.5,0,.74S21.28,19.85,21.12,19.84ZM21,14.05c0,.48-.12.61-.51.59s-.42-.13-.42-.44V14c0-.17,0-.35.19-.43a.66.66,0,0,1,.64.06C21.08,13.74,21,13.93,21,14.05Zm-.39-2.38c.29,0,.38.13.39.43a1.33,1.33,0,0,0,0,.2c0,.17,0,.35-.19.43a.66.66,0,0,1-.64-.05c-.17-.11-.08-.3-.11-.42C20.08,11.77,20.22,11.63,20.63,11.67ZM21,8c.21,0,.35,0,.32.28s0,.32-.34.32-.36,0-.36-.3S20.58,8,21,8Zm-.57.5c0,.07,0,.1-.11.1H20c-.08,0-.25.07-.29-.06a1.6,1.6,0,0,1,0-.49s.06,0,.1,0H20C20.4,8,20.47,8,20.39,8.46Zm1.24.1c-.29,0-.09-.22-.16-.3,0-.3.1-.37.37-.3.06,0,.09,0,.08.1a1.21,1.21,0,0,1,0,.19C21.88,8.42,21.91,8.59,21.63,8.56Zm7.67,12.2a.37.37,0,0,1-.39.15,45.69,45.69,0,0,0-5.22-.53c-.15,0-.33,0-.28-.24a.25.25,0,0,0-.26-.28c-.18,0-.2-.08-.21-.22-.1-1-.21-2-.31-3-.2-1.86-.39-3.73-.58-5.59-.07-.64-.13-1.28-.2-1.91,0-.08,0-.17.09-.16s.2-.11.22-.24,0-.39.07-.59,0-.13.07-.16a.11.11,0,0,0,.07-.16c0-.09-.11-.09-.18-.09H20.45c-.56,0-1.12,0-1.68,0-.09,0-.19,0-.23.09s0,.14.13.16,0,.1,0,.15l.09.64c0,.12.07.19.18.19s.17.08.16.21c-.3,2.64-.59,5.28-.89,7.91-.09.86-.19,1.72-.29,2.58,0,.12,0,.2-.18.2a.29.29,0,0,0-.28.38c0,.16,0,.19-.16.2a41.4,41.4,0,0,0-4.71.54.47.47,0,0,0-.17,0c-.44.19-.7,0-1-.35A11.69,11.69,0,0,1,8.85,14a10.75,10.75,0,0,1,1-5.54,11.46,11.46,0,0,1,8.41-6.7,11.2,11.2,0,0,1,7.18.92A11.2,11.2,0,0,1,32,11.83,11.26,11.26,0,0,1,29.3,20.76Z"/><path class="cls-2" d="M14.07,12.78a.26.26,0,1,0,0,.51.26.26,0,0,0,0-.51Z"/><path class="cls-2" d="M17.74,3.44a.68.68,0,0,1,0-.9c-.49.17-.73.48-.69.85a.85.85,0,0,0,.71.75.87.87,0,0,0,1-.54A.83.83,0,0,1,17.74,3.44Zm-.33.35a.57.57,0,0,1,0-.88c0,.59.27.86.87.95A.67.67,0,0,1,17.41,3.79Z"/><path class="cls-2" d="M14.08,5.29a.39.39,0,0,0-.39.37.38.38,0,0,0,.37.39.36.36,0,0,0,.38-.36A.39.39,0,0,0,14.08,5.29Zm0,.6a.2.2,0,0,1-.22-.21.21.21,0,0,1,.23-.23.21.21,0,0,1,.21.23A.2.2,0,0,1,14.07,5.89Z"/><path class="cls-2" d="M26.68,5.59A.39.39,0,0,0,26.3,6a.38.38,0,0,0,.38.38A.39.39,0,0,0,27.06,6,.39.39,0,0,0,26.68,5.59ZM26.9,6a.2.2,0,0,1-.22.21A.2.2,0,0,1,26.46,6c0-.14.09-.2.22-.22A.23.23,0,0,1,26.9,6Z"/><polygon class="cls-2" points="11 11.31 10.89 11.11 10.79 11.31 10.56 11.35 10.73 11.51 10.69 11.74 10.89 11.63 11.1 11.74 11.06 11.51 11.23 11.35 11 11.31"/><polygon class="cls-2" points="24.26 9.26 24.15 9.04 24.04 9.26 23.8 9.29 23.97 9.47 23.93 9.71 24.15 9.59 24.36 9.71 24.32 9.47 24.5 9.29 24.26 9.26"/><polygon class="cls-2" points="26.15 14.09 26.05 13.89 25.95 14.09 25.74 14.12 25.89 14.27 25.86 14.49 26.05 14.39 26.24 14.49 26.21 14.27 26.36 14.12 26.15 14.09"/><rect class="cls-2" x="15.32" y="8.98" width="0.48" height="0.48" rx="0.03" transform="translate(-2.13 13) rotate(-42.73)"/><rect class="cls-2" x="23.66" y="4.23" width="0.48" height="0.48" rx="0.03" transform="translate(3.31 17.4) rotate(-42.73)"/><rect class="cls-2" x="28.58" y="11.48" width="0.48" height="0.48" rx="0.03" transform="translate(-0.3 22.67) rotate(-42.73)"/><rect class="cls-2" x="20.36" y="6.63" width="0.31" height="0.19" rx="0.06"/><path class="cls-2" d="M21.77,5.71a.35.35,0,0,0-.35-.35h-.29V5a.28.28,0,0,0-.28-.27h0V3.57a.11.11,0,0,0-.1-.11V3.4a.31.31,0,0,0-.22-.3V1.86h-.1V3.1a.3.3,0,0,0-.21.3v.06a.13.13,0,0,0-.08.11V4.68h.07A.27.27,0,0,0,20,5v.41h-.18a.49.49,0,0,0-.49.5V7.17h2.49ZM20.9,7h-.72V6.48a.21.21,0,0,1,.22-.21h0V6h.26v.3h0a.21.21,0,0,1,.22.21Z"/></svg>