<svg id="Layer_1" data-name="Layer 1" xmlns="http://www.w3.org/2000/svg" viewBox="0 0 269 56"><defs><style>.cls-1{fill:#0d2451;}.cls-2{fill:#ef305e;}</style></defs><path class="cls-1" d="M86.09,34H75.44V20.1h3.24V31h7.41Z"/><path class="cls-1" d="M88.06,20.79V18.24H91.3v2.55Zm0,13.2V22.41H91.3V34Z"/><path class="cls-1" d="M100.1,34H95.81l-2.66-2.66V25.07l2.66-2.66h8.45V36l-2.66,2.66H94.31v-3h5.79l.92-.93V25.42h-3.7l-.93.93v3.7l.93.93h2.78Z"/><path class="cls-1" d="M113.76,34V26.35l-.93-.93h-3l-.46.47V34h-3.24V17.78h3.24v4.4l-.88.88.53.51,1.16-1.16h4.16L117,25.07V34Z"/><path class="cls-1" d="M125.33,34h-3.82l-2.66-2.66V18.24h3.24v4.52h3v3h-3v4.28L123,31h2.31Z"/><path class="cls-1" d="M134.82,34V26.35l-.92-.93h-3l-.46.47V34h-3.25V17.78h3.25v4.4l-.88.88.53.51,1.16-1.16h4.16l2.67,2.66V34Z"/><path class="cls-1" d="M139.92,31.33V25.07l2.66-2.66h6.25l2.66,2.66v6.26L148.83,34h-6.25Zm3.24-5v3.7l.93.93h3.24l.92-.93v-3.7l-.92-.93h-3.24Z"/><path class="cls-1" d="M156.59,22.41v7.64l.92.93h3l.47-.46V22.41h3.24V34h-2.66l-.24-1.16L160.18,34H156l-2.66-2.66V22.41Z"/><path class="cls-1" d="M166.08,31h7.41l.69-.7-.69-.69h-4.75l-2.66-2.66V25.07l2.66-2.66H177v3h-6.71l-.7.7.7.69H175l2.67,2.66v1.86L175,34h-8.91Z"/><path class="cls-1" d="M183.91,27h3.93v-.69l-.92-.93h-3.24l-.93.93v3.7l.93.93h6.25v3h-7.76l-2.66-2.66V25.07l2.66-2.66h6.25l2.67,2.66v4.75h-7.18Z"/><path class="cls-1" d="M224.15,33.17h-7.37l-1.21-4.45H203l-1.2,4.45h-7.43L202.7,1.78h13.08ZM204.79,21.92h9L210.18,8.58h-1.83Z"/><path class="cls-1" d="M239.85,7.79h-2.62V27.15h2.62v6H227.29v-6h2.62V7.79h-2.62v-6h12.56Z"/><path class="cls-1" d="M77.68,45.7h3.15a.22.22,0,0,1,.25.24v4.73a.57.57,0,0,1-.28.49,6.21,6.21,0,0,1-3.2.73c-3.35,0-5-1.8-5-5.38s1.7-5.37,5.1-5.37a5.63,5.63,0,0,1,2.82.64c.17.07.23.16.19.28l-.25.64a.24.24,0,0,1-.34.13,5.14,5.14,0,0,0-2.34-.52,3.82,3.82,0,0,0-3,1,4.61,4.61,0,0,0-.93,3.18,4.59,4.59,0,0,0,.93,3.18,3.68,3.68,0,0,0,2.87,1,4.73,4.73,0,0,0,2.15-.44V46.83H77.68q-.27,0-.27-.24v-.65Q77.41,45.7,77.68,45.7Z"/><path class="cls-1" d="M83.25,49.09V44.28a.21.21,0,0,1,.24-.24h.72a.21.21,0,0,1,.23.24V48.9a1.64,1.64,0,0,0,1.83,1.89,2.41,2.41,0,0,0,1.65-.58,2.06,2.06,0,0,0,.64-1.58V44.28c0-.16.07-.24.23-.24h.73c.15,0,.22.08.22.24V51.5c0,.16-.07.24-.22.24h-.73a.2.2,0,0,1-.23-.23v-1a3.15,3.15,0,0,1-4.63.61A2.89,2.89,0,0,1,83.25,49.09Z"/><path class="cls-1" d="M93.31,41.6v1.2c0,.16-.07.24-.22.24h-.74a.21.21,0,0,1-.23-.24V41.6a.21.21,0,0,1,.23-.24h.74C93.24,41.36,93.31,41.44,93.31,41.6Zm0,2.68V51.5c0,.16-.07.24-.22.24h-.74a.21.21,0,0,1-.23-.24V44.28a.21.21,0,0,1,.23-.24h.74C93.24,44,93.31,44.12,93.31,44.28Z"/><path class="cls-1" d="M101.46,51.51V50.44a2.68,2.68,0,0,1-2.75,1.45,3.21,3.21,0,0,1-2.52-1,4.36,4.36,0,0,1-.92-3,4.35,4.35,0,0,1,.92-3,3.21,3.21,0,0,1,2.52-1,3.53,3.53,0,0,1,1.68.39,2.24,2.24,0,0,1,1,1.08v-3.8a.21.21,0,0,1,.24-.23h.73a.21.21,0,0,1,.24.23v10a.21.21,0,0,1-.24.24h-.73C101.53,51.74,101.46,51.66,101.46,51.51Zm-.67-1.44a3.95,3.95,0,0,0,0-4.4,2.35,2.35,0,0,0-1.86-.75,2.25,2.25,0,0,0-1.81.7,3.38,3.38,0,0,0-.61,2.25,3.38,3.38,0,0,0,.61,2.25,2.23,2.23,0,0,0,1.81.71A2.32,2.32,0,0,0,100.79,50.07Z"/><path class="cls-1" d="M106.26,41.6v1.2A.21.21,0,0,1,106,43h-.74c-.15,0-.22-.08-.22-.24V41.6c0-.16.07-.24.22-.24H106A.21.21,0,0,1,106.26,41.6Zm0,2.68V51.5a.21.21,0,0,1-.23.24h-.74c-.15,0-.22-.08-.22-.24V44.28c0-.16.07-.24.22-.24H106A.21.21,0,0,1,106.26,44.28Z"/><path class="cls-1" d="M115.19,46.65V51.5a.21.21,0,0,1-.24.24h-.73a.21.21,0,0,1-.23-.24V46.82A1.65,1.65,0,0,0,112.1,45a2.32,2.32,0,0,0-1.69.61,2.12,2.12,0,0,0-.62,1.59V51.5c0,.16-.07.24-.23.24h-.73c-.15,0-.22-.08-.22-.24V44.28c0-.16.07-.24.22-.24h.71c.16,0,.24.07.24.22v1a3.23,3.23,0,0,1,4.7-.63A2.87,2.87,0,0,1,115.19,46.65Z"/><path class="cls-1" d="M124,44.28v6.36a2.65,2.65,0,0,1-.93,2.15,3.85,3.85,0,0,1-2.52.76,6.23,6.23,0,0,1-2.6-.45c-.14-.05-.19-.13-.15-.23l.22-.61a.2.2,0,0,1,.29-.15,5.92,5.92,0,0,0,2.21.39,2.59,2.59,0,0,0,1.68-.51,1.73,1.73,0,0,0,.63-1.43v-.84a2.13,2.13,0,0,1-1,1,3.27,3.27,0,0,1-1.52.35,3.21,3.21,0,0,1-2.35-.89,3.68,3.68,0,0,1-.89-2.69,3.78,3.78,0,0,1,.87-2.72,3.07,3.07,0,0,1,2.33-.91,3.36,3.36,0,0,1,1.54.36,2.18,2.18,0,0,1,1,1v-.91c0-.15.08-.22.23-.22h.72C123.88,44,124,44.12,124,44.28Zm-1.19,3.1a2.65,2.65,0,0,0-.59-1.88,2.23,2.23,0,0,0-1.67-.61c-1.49,0-2.23.86-2.23,2.6s.74,2.58,2.23,2.58a2.09,2.09,0,0,0,1.66-.69A3,3,0,0,0,122.77,47.38Z"/><path class="cls-1" d="M136.69,44.29l-2.4,7a3.87,3.87,0,0,1-.91,1.69,2.24,2.24,0,0,1-1.59.49,3,3,0,0,1-1.08-.16c-.14-.05-.2-.13-.18-.22l.18-.61a.22.22,0,0,1,.25-.17,4.51,4.51,0,0,0,.76.11,1.21,1.21,0,0,0,.78-.23.72.72,0,0,0,.27-.59,1.26,1.26,0,0,0-.1-.49L130,44.29c-.07-.17,0-.25.16-.25H131c.12,0,.2.08.25.23l1.43,3.93.83,2.28h.06l.72-2.29,1.22-3.92a.27.27,0,0,1,.26-.22h.79C136.68,44,136.74,44.12,136.69,44.29Z"/><path class="cls-1" d="M141.38,51.89a3.5,3.5,0,0,1-2.69-1,4.16,4.16,0,0,1-1-3,4.13,4.13,0,0,1,1-3,4,4,0,0,1,5.37,0,4.14,4.14,0,0,1,1,3,4.16,4.16,0,0,1-1,3A3.5,3.5,0,0,1,141.38,51.89Zm0-1.06a2.27,2.27,0,0,0,1.8-.74,3.38,3.38,0,0,0,.64-2.22,3.33,3.33,0,0,0-.64-2.21,2.57,2.57,0,0,0-3.61,0,3.33,3.33,0,0,0-.63,2.21,3.38,3.38,0,0,0,.63,2.22A2.27,2.27,0,0,0,141.38,50.83Z"/><path class="cls-1" d="M146.86,49.09V44.28a.21.21,0,0,1,.24-.24h.73c.15,0,.22.08.22.24V48.9a1.64,1.64,0,0,0,1.83,1.89,2.41,2.41,0,0,0,1.65-.58,2,2,0,0,0,.64-1.58V44.28a.21.21,0,0,1,.24-.24h.73c.14,0,.22.08.22.24V51.5c0,.16-.08.24-.22.24h-.73a.21.21,0,0,1-.24-.23v-1a3.15,3.15,0,0,1-4.63.61A2.93,2.93,0,0,1,146.86,49.09Z"/><path class="cls-1" d="M166.88,46.65V51.5c0,.16-.07.24-.22.24h-.74c-.15,0-.22-.08-.22-.24V46.83A1.67,1.67,0,0,0,163.78,45a2.28,2.28,0,0,0-1.71.63,2.16,2.16,0,0,0-.63,1.59v4.32a.2.2,0,0,1-.23.23h-.73a.21.21,0,0,1-.24-.24v-10a.21.21,0,0,1,.24-.23h.73a.2.2,0,0,1,.23.23v3.71a2.33,2.33,0,0,1,.92-1,3.19,3.19,0,0,1,1.73-.42,2.76,2.76,0,0,1,2.08.74A2.83,2.83,0,0,1,166.88,46.65Z"/><path class="cls-1" d="M172.43,51.89a3.5,3.5,0,0,1-2.69-1,4.16,4.16,0,0,1-1-3,4.13,4.13,0,0,1,1-3,4,4,0,0,1,5.37,0,4.14,4.14,0,0,1,1,3,4.16,4.16,0,0,1-1,3A3.5,3.5,0,0,1,172.43,51.89Zm0-1.06a2.27,2.27,0,0,0,1.8-.74,3.38,3.38,0,0,0,.64-2.22,3.33,3.33,0,0,0-.64-2.21,2.57,2.57,0,0,0-3.61,0,3.33,3.33,0,0,0-.63,2.21,3.38,3.38,0,0,0,.63,2.22A2.27,2.27,0,0,0,172.43,50.83Z"/><path class="cls-1" d="M184.26,47V51.5a.21.21,0,0,1-.24.24h-.73c-.16,0-.23-.08-.23-.24V46.74q0-1.77-1.65-1.77a2.16,2.16,0,0,0-1.58.58,2.07,2.07,0,0,0-.58,1.54V51.5a.21.21,0,0,1-.24.24h-.73a.21.21,0,0,1-.23-.24V44.28a.21.21,0,0,1,.23-.24H179c.16,0,.24.07.24.22v1a2.18,2.18,0,0,1,.83-.95,2.79,2.79,0,0,1,1.61-.42A2.17,2.17,0,0,1,184,45.3a2.73,2.73,0,0,1,2.68-1.44,2.42,2.42,0,0,1,1.9.74,2.86,2.86,0,0,1,.65,2V51.5c0,.16-.07.24-.22.24h-.73a.21.21,0,0,1-.24-.24V46.76a2,2,0,0,0-.38-1.33A1.62,1.62,0,0,0,186.4,45a2.13,2.13,0,0,0-1.55.57A1.89,1.89,0,0,0,184.26,47Z"/><path class="cls-1" d="M195.12,50.89a4.08,4.08,0,0,0,1.95-.48c.14-.07.25,0,.33.14l.22.55c0,.11,0,.2-.16.27a5.22,5.22,0,0,1-2.39.55,3.87,3.87,0,0,1-2.89-1.08,4,4,0,0,1-1.05-2.94,4.25,4.25,0,0,1,1-3,3.3,3.3,0,0,1,2.6-1.06,3.17,3.17,0,0,1,2.49,1,3.73,3.73,0,0,1,.88,2.59v.75c0,.15-.08.23-.25.23h-5.48a2.52,2.52,0,0,0,.83,1.79A2.84,2.84,0,0,0,195.12,50.89Zm-.44-6c-1.49,0-2.28.84-2.36,2.54h4.57v-.08a2.69,2.69,0,0,0-.56-1.8A2.06,2.06,0,0,0,194.68,44.89Z"/><path class="cls-2" d="M36.75,15h-6a.32.32,0,1,0,0,.63h6a.32.32,0,0,0,0-.63Z"/><path class="cls-2" d="M33.46,1.53A26.64,26.64,0,1,0,60.15,28.26,26.68,26.68,0,0,0,33.46,1.53ZM31,18c-.51-.06-.55-.12-.6-1,0-.51.32-.3.54-.34.6-.12.65.23.57.67C31.54,17.73,31.53,18,31,18Zm4.09,24.78c-.51,0-1,0-1.52,0h0c-.49,0-1,0-1.46,0s-.52-.07-.49-.47c0-.59,0-1.19,0-1.79a1.12,1.12,0,0,1,.69-1.12,2.84,2.84,0,0,1,2.16-.14,1.25,1.25,0,0,1,1.07,1.45c0,.54,0,1.09,0,1.63C35.53,42.69,35.39,42.78,35.05,42.76ZM34.82,30c0,1.05-.26,1.33-1.12,1.29-.67,0-.93-.29-.93-1v-.43c0-.39,0-.78.42-.95a1.45,1.45,0,0,1,1.4.12C35,29.35,34.76,29.77,34.82,30ZM34,24.8c.63.06.84.29.84.94v.44c0,.38,0,.78-.41.95A1.48,1.48,0,0,1,33,27c-.38-.26-.18-.67-.24-.93C32.76,25,33.07,24.71,34,24.8Zm.71-8.16c.46,0,.78,0,.71.63s0,.69-.75.69-.78,0-.78-.65S33.86,16.66,34.68,16.64Zm-1.25,1.1c0,.16-.09.22-.24.22H32.6c-.18-.07-.55.16-.64-.13a3.19,3.19,0,0,1,0-1.07c0-.1.13-.11.22-.11h.38C33.46,16.64,33.6,16.83,33.43,17.74Zm2.72.24c-.62-.06-.2-.5-.34-.68,0-.65.23-.81.82-.66.13,0,.18.09.17.22s0,.29,0,.43C36.72,17.65,36.76,18,36.15,18ZM53,44.77a.81.81,0,0,1-.87.33A98,98,0,0,0,40.69,44c-.34,0-.73.07-.63-.54a.53.53,0,0,0-.56-.61c-.39,0-.44-.19-.47-.48q-.33-3.33-.68-6.65-.63-6.14-1.27-12.27c-.15-1.4-.29-2.81-.44-4.21,0-.16-.06-.36.2-.34s.44-.24.47-.53.11-.86.17-1.29c0-.13,0-.3.15-.37a.26.26,0,0,0,.16-.35c-.07-.2-.24-.18-.41-.18H29.87c-.18,0-.42-.08-.5.19s.06.32.28.37.1.21.12.33c.07.46.13.93.18,1.4,0,.26.17.43.41.41.41,0,.38.19.35.47L28.76,36.69c-.21,1.89-.43,3.78-.64,5.67,0,.26-.06.43-.39.44a.63.63,0,0,0-.62.83c.07.36,0,.42-.35.44A92.27,92.27,0,0,0,16.4,45.26a1.52,1.52,0,0,0-.38.05c-.95.42-1.53,0-2.13-.75A25.69,25.69,0,0,1,8.08,30a23.66,23.66,0,0,1,2.13-12.17C14,10,20,4.81,28.68,3.12a24.62,24.62,0,0,1,15.79,2c8.37,4.09,13.25,10.8,14.42,20A24.75,24.75,0,0,1,53,44.77Z"/><path class="cls-2" d="M19.54,27.24a.5.5,0,0,0-.59.5.51.51,0,0,0,.53.61.51.51,0,0,0,.57-.52A.51.51,0,0,0,19.54,27.24Z"/><path class="cls-2" d="M27.6,6.71a1.5,1.5,0,0,1,.1-2c-1.08.38-1.6,1.06-1.52,1.87a1.86,1.86,0,0,0,1.57,1.64A1.91,1.91,0,0,0,29.9,7.07,1.84,1.84,0,0,1,27.6,6.71Zm-.7.77A1.25,1.25,0,0,1,27,5.54c0,1.3.58,1.89,1.91,2.1A1.47,1.47,0,0,1,26.9,7.48Z"/><path class="cls-2" d="M19.57,10.79a.84.84,0,0,0-.85.81.83.83,0,1,0,1.65.05A.84.84,0,0,0,19.57,10.79Zm0,1.31a.43.43,0,0,1-.48-.47.46.46,0,0,1,.51-.5.49.49,0,0,1,.47.51A.46.46,0,0,1,19.54,12.1Z"/><path class="cls-2" d="M47.26,11.44a.84.84,0,0,0-.83.83.82.82,0,0,0,.82.84.85.85,0,0,0,.84-.82A.87.87,0,0,0,47.26,11.44Zm.49.86a.47.47,0,0,1-.49.47.46.46,0,0,1-.49-.52c0-.3.2-.43.48-.48S47.76,12,47.75,12.3Z"/><polygon class="cls-2" points="12.8 24.02 12.57 23.56 12.34 24.02 11.84 24.09 12.2 24.45 12.12 24.96 12.57 24.72 13.02 24.96 12.94 24.45 13.3 24.09 12.8 24.02"/><polygon class="cls-2" points="41.93 19.5 41.69 19.02 41.45 19.5 40.92 19.58 41.31 19.96 41.22 20.49 41.69 20.24 42.17 20.49 42.08 19.96 42.46 19.58 41.93 19.5"/><polygon class="cls-2" points="46.08 30.11 45.87 29.68 45.66 30.11 45.18 30.18 45.53 30.52 45.44 30.99 45.87 30.77 46.3 30.99 46.22 30.52 46.56 30.18 46.08 30.11"/><rect class="cls-2" x="22.29" y="18.89" width="1.06" height="1.06" rx="0.07" transform="translate(-7.12 20.63) rotate(-42.73)"/><rect class="cls-2" x="40.63" y="8.44" width="1.06" height="1.06" rx="0.07" transform="translate(4.84 30.31) rotate(-42.73)"/><rect class="cls-2" x="51.43" y="24.39" width="1.06" height="1.06" rx="0.07" transform="translate(-3.11 41.87) rotate(-42.73)"/><rect class="cls-2" x="33.37" y="13.73" width="0.68" height="0.43" rx="0.13"/><path class="cls-2" d="M36.47,11.7a.76.76,0,0,0-.76-.76h-.66V10a.59.59,0,0,0-.6-.59h0V7a.27.27,0,0,0-.22-.26V6.63A.66.66,0,0,0,33.77,6V3.24h-.22V6a.66.66,0,0,0-.46.66v.13a.27.27,0,0,0-.18.25V9.44h.15a.58.58,0,0,0-.59.59v.91h-.39A1.09,1.09,0,0,0,31,12V14.9h5.49Zm-1.93,2.87H33V13.4a.47.47,0,0,1,.47-.47h0v-.66H34v.66h.06a.47.47,0,0,1,.46.47Z"/></svg>